<?xml version="1.0" encoding="UTF-8"?>
<svg id="_레이어_1" data-name="레이어 1" xmlns="http://www.w3.org/2000/svg" viewBox="0 0 5.74 10.47">
  <defs>
    <style>
      .cls-1 {
        fill: #fff;
        stroke: #fff;
        stroke-miterlimit: 10;
        stroke-width: .25px;
      }
    </style>
  </defs>
  <path class="cls-1" d="M1.21,5.23l4.25,4.25c.09.09.14.21.15.34,0,.14-.04.26-.15.36-.11.11-.22.16-.35.16-.13,0-.25-.05-.35-.16L.36,5.79c-.09-.09-.15-.18-.18-.27-.04-.09-.05-.19-.05-.3,0-.11.02-.21.05-.3.04-.09.1-.18.18-.27L4.75.28c.09-.09.21-.14.34-.15.14,0,.26.04.36.15.11.11.16.22.16.35s-.05.25-.16.35L1.21,5.23Z"/>
</svg>