<?xml version="1.0" encoding="UTF-8"?>
<svg id="_레이어_1" data-name="레이어 1" xmlns="http://www.w3.org/2000/svg" viewBox="0 0 10.47 5.74">
  <defs>
    <style>
      .cls-1 {
        fill: #3d3d3d;
        stroke: #3d3d3d;
        stroke-miterlimit: 10;
        stroke-width: .25px;
      }
    </style>
  </defs>
  <path class="cls-1" d="M5.23,4.53L9.48.28c.09-.09.21-.14.34-.15.14,0,.26.04.36.15.11.11.16.22.16.35,0,.13-.05.25-.16.35l-4.39,4.39c-.09.09-.18.15-.27.18-.09.04-.19.05-.3.05-.11,0-.21-.02-.3-.05-.09-.04-.18-.1-.27-.18L.28.99c-.09-.09-.14-.21-.15-.34,0-.14.04-.26.15-.36.11-.11.22-.16.35-.16s.25.05.35.16l4.25,4.25Z"/>
</svg>