<?xml version="1.0" encoding="UTF-8"?>
<svg id="_레이어_1" data-name="레이어 1" xmlns="http://www.w3.org/2000/svg" viewBox="0 0 16.88 16.88">
  <defs>
    <style>
      .cls-1 {
        fill: #b3b3b3;
        stroke-width: 0px;
      }
    </style>
  </defs>
  <path class="cls-1" d="M6.12,12.23c-1.71,0-3.15-.59-4.34-1.78-1.18-1.18-1.78-2.63-1.78-4.34S.59,2.96,1.78,1.78,4.41,0,6.12,0s3.15.59,4.34,1.78c1.18,1.18,1.78,2.63,1.78,4.34,0,.71-.12,1.4-.36,2.05-.24.65-.56,1.22-.96,1.7l5.75,5.75c.14.14.21.31.21.52,0,.21-.07.39-.21.53-.14.14-.32.22-.53.22s-.38-.07-.53-.22l-5.75-5.75c-.5.41-1.07.74-1.73.97-.65.23-1.32.35-2.02.35ZM6.12,10.73c1.29,0,2.38-.45,3.27-1.34.89-.89,1.34-1.99,1.34-3.27s-.45-2.38-1.34-3.27c-.89-.89-1.99-1.34-3.27-1.34s-2.38.45-3.27,1.34c-.89.89-1.34,1.99-1.34,3.27s.45,2.38,1.34,3.27c.89.89,1.99,1.34,3.27,1.34Z"/>
</svg>