<?xml version="1.0" encoding="UTF-8"?>
<svg id="_레이어_1" data-name="레이어 1" xmlns="http://www.w3.org/2000/svg" viewBox="0 0 5.49 10.22">
  <defs>
    <style>
      .cls-1 {
        fill: #3d3d3d;
        stroke-width: 0px;
      }
    </style>
  </defs>
  <path class="cls-1" d="M1.09,5.1l4.25,4.25c.09.09.14.21.15.34,0,.14-.04.26-.15.36-.11.11-.22.16-.35.16-.13,0-.25-.05-.35-.16L.24,5.67c-.09-.09-.15-.18-.18-.27-.04-.09-.05-.19-.05-.3,0-.11.02-.21.05-.3.04-.09.1-.18.18-.27L4.62.15c.09-.09.21-.14.34-.15.14,0,.26.04.36.15.11.11.16.22.16.35s-.05.25-.16.35L1.09,5.1Z"/>
</svg>