<?xml version="1.0" encoding="UTF-8"?>
<svg id="_레이어_1" data-name="레이어 1" xmlns="http://www.w3.org/2000/svg" viewBox="0 0 5.74 10.47">
  <defs>
    <style>
      .cls-1 {
        fill: #3d3d3d;
        stroke: #3d3d3d;
        stroke-miterlimit: 10;
        stroke-width: .25px;
      }
    </style>
  </defs>
  <path class="cls-1" d="M4.53,5.24L.28.99c-.09-.09-.14-.21-.15-.34,0-.14.04-.26.15-.36.11-.11.22-.16.35-.16s.25.05.35.16l4.39,4.39c.09.09.15.18.18.27.04.09.05.19.05.3s-.02.21-.05.3c-.04.09-.1.18-.18.27L.99,10.19c-.09.09-.21.14-.34.15-.14,0-.26-.04-.36-.15-.11-.11-.16-.22-.16-.35s.05-.25.16-.35l4.25-4.25Z"/>
</svg>