<?xml version="1.0" encoding="UTF-8"?>
<svg id="_레이어_1" data-name="레이어 1" xmlns="http://www.w3.org/2000/svg" viewBox="0 0 18.25 18.25">
  <defs>
    <style>
      .cls-1 {
        fill: #00c8f4;
        stroke: #00c8f4;
        stroke-miterlimit: 10;
        stroke-width: .25px;
      }
    </style>
  </defs>
  <path class="cls-1" d="M8.63,9.63v3.5c0,.14.05.26.14.36.1.1.21.14.36.14s.26-.05.36-.14c.1-.1.14-.21.14-.36v-3.5h3.5c.14,0,.26-.05.36-.14.1-.1.14-.21.14-.36s-.05-.26-.14-.36c-.1-.1-.21-.14-.36-.14h-3.5v-3.5c0-.14-.05-.26-.14-.36-.1-.1-.21-.14-.36-.14s-.26.05-.36.14c-.1.1-.14.21-.14.36v3.5h-3.5c-.14,0-.26.05-.36.14-.1.1-.14.21-.14.36s.05.26.14.36c.1.1.21.14.36.14h3.5ZM9.13,18.13c-1.24,0-2.41-.24-3.51-.71-1.1-.47-2.05-1.11-2.86-1.92-.81-.81-1.45-1.76-1.92-2.86-.47-1.09-.71-2.26-.71-3.51s.24-2.41.71-3.51c.47-1.1,1.11-2.05,1.92-2.86.81-.81,1.76-1.45,2.86-1.92,1.09-.47,2.26-.71,3.51-.71s2.41.24,3.51.71c1.1.47,2.05,1.11,2.86,1.92.81.81,1.45,1.76,1.92,2.86.47,1.09.71,2.26.71,3.51s-.24,2.41-.71,3.51c-.47,1.1-1.11,2.05-1.92,2.86-.81.81-1.76,1.45-2.86,1.92-1.09.47-2.26.71-3.51.71ZM9.13,17.13c2.23,0,4.13-.78,5.68-2.33s2.33-3.44,2.33-5.68-.78-4.13-2.33-5.68-3.44-2.33-5.68-2.33-4.13.78-5.68,2.33-2.33,3.44-2.33,5.68.78,4.13,2.33,5.68,3.44,2.33,5.68,2.33Z"/>
</svg>