<?xml version="1.0" encoding="UTF-8"?>
<svg id="_레이어_1" data-name="레이어 1" xmlns="http://www.w3.org/2000/svg" viewBox="0 0 6.48 3.57">
  <defs>
    <style>
      .cls-1 {
        fill: #b3b3b3;
        stroke-width: 0px;
      }
    </style>
  </defs>
  <path class="cls-1" d="M2.81,3.37L.13.7s-.07-.08-.09-.13-.04-.1-.04-.16c0-.11.04-.21.11-.29.07-.08.17-.12.29-.12h5.68c.12,0,.22.04.29.12.07.08.11.18.11.29,0,.03-.04.12-.13.28l-2.68,2.68c-.06.06-.13.11-.2.14-.07.03-.15.05-.24.05s-.16-.02-.24-.05c-.07-.03-.14-.08-.2-.14Z"/>
</svg>