<?xml version="1.0" encoding="UTF-8"?>
<svg id="_레이어_1" data-name="레이어 1" xmlns="http://www.w3.org/2000/svg" viewBox="0 0 17.25 17.25">
  <defs>
    <style>
      .cls-1 {
        fill: #3d3d3d;
        stroke: #3d3d3d;
        stroke-miterlimit: 10;
        stroke-width: .25px;
      }
    </style>
  </defs>
  <path class="cls-1" d="M8.62,17.13c-.14,0-.26-.05-.36-.14-.1-.1-.14-.21-.14-.36v-4c0-.14.05-.26.14-.36.1-.1.21-.14.36-.14s.26.05.36.14c.1.1.14.21.14.36v1.5h7.5c.14,0,.26.05.36.14.1.1.14.21.14.36s-.05.26-.14.36c-.1.1-.21.14-.36.14h-7.5v1.5c0,.14-.05.26-.14.36-.1.1-.21.14-.36.14ZM.63,15.13c-.14,0-.26-.05-.36-.14-.1-.1-.14-.21-.14-.36s.05-.26.14-.36c.1-.1.21-.14.36-.14h4c.14,0,.26.05.36.14.1.1.14.21.14.36s-.05.26-.14.36c-.1.1-.21.14-.36.14H.63ZM4.62,11.13c-.14,0-.26-.05-.36-.14-.1-.1-.14-.21-.14-.36v-1.5H.63c-.14,0-.26-.05-.36-.14-.1-.1-.14-.21-.14-.36s.05-.26.14-.36c.1-.1.21-.14.36-.14h3.5v-1.5c0-.14.05-.26.14-.36.1-.1.21-.14.36-.14s.26.05.36.14c.1.1.14.21.14.36v4c0,.14-.05.26-.14.36-.1.1-.21.14-.36.14ZM8.63,9.13c-.14,0-.26-.05-.36-.14-.1-.1-.14-.21-.14-.36s.05-.26.14-.36c.1-.1.21-.14.36-.14h8c.14,0,.26.05.36.14.1.1.14.21.14.36s-.05.26-.14.36c-.1.1-.21.14-.36.14h-8ZM12.62,5.13c-.14,0-.26-.05-.36-.14-.1-.1-.14-.21-.14-.36V.63c0-.14.05-.26.14-.36.1-.1.21-.14.36-.14s.26.05.36.14c.1.1.14.21.14.36v1.5h3.5c.14,0,.26.05.36.14.1.1.14.21.14.36s-.05.26-.14.36c-.1.1-.21.14-.36.14h-3.5v1.5c0,.14-.05.26-.14.36-.1.1-.21.14-.36.14ZM.63,3.13c-.14,0-.26-.05-.36-.14-.1-.1-.14-.21-.14-.36s.05-.26.14-.36c.1-.1.21-.14.36-.14h8c.14,0,.26.05.36.14.1.1.14.21.14.36s-.05.26-.14.36c-.1.1-.21.14-.36.14H.63Z"/>
</svg>