<?xml version="1.0" encoding="UTF-8"?>
<svg id="_레이어_1" data-name="레이어 1" xmlns="http://www.w3.org/2000/svg" viewBox="0 0 12.25 12.25">
  <defs>
    <style>
      .cls-1 {
        fill: #fff;
        stroke: #fff;
        stroke-miterlimit: 10;
        stroke-width: .25px;
      }
    </style>
  </defs>
  <path class="cls-1" d="M5.63,6.63H.63c-.14,0-.26-.05-.36-.14-.1-.1-.14-.21-.14-.36s.05-.26.14-.36c.1-.1.21-.14.36-.14h5V.63c0-.14.05-.26.14-.36.1-.1.21-.14.36-.14s.26.05.36.14c.1.1.14.21.14.36v5h5c.14,0,.26.05.36.14.1.1.14.21.14.36s-.05.26-.14.36c-.1.1-.21.14-.36.14h-5v5c0,.14-.05.26-.14.36-.1.1-.21.14-.36.14s-.26-.05-.36-.14c-.1-.1-.14-.21-.14-.36v-5Z"/>
</svg>