<?xml version="1.0" encoding="UTF-8"?>
<svg id="_레이어_1" data-name="레이어 1" xmlns="http://www.w3.org/2000/svg" viewBox="0 0 133.75 135.48">
  <defs>
    <style>
      .cls-1 {
        fill: #ccc;
        stroke-width: 0px;
      }
    </style>
  </defs>
  <path class="cls-1" d="m93.35,5.2C59.44-9.15,20.1,7.21,5.48,41.75c-14.62,34.54,1.01,74.17,34.92,88.53,33.91,14.35,73.25-2.01,87.87-36.55,14.62-34.54-1.01-74.17-34.92-88.53ZM28.24,49.78h32.73v19.91h-9.1v-2.83h-23.26v-6.87h23.26v-3.34h-23.63v-6.87Zm35.97,28.78h-14.76v7.84h-9.61v-7.84h-14.62v-7.29h38.99v7.29Zm4.13-15.78h14.62l.65-4.69-3.39,3.62h-8.59l-.42-6.17h-2.88v-6.17h25.99v6.17h-14.44l.14,4.83,3.2-3.39h8.82l-.56,5.8h3.16v6.5h-26.32v-6.5Zm37.71,20.68c-.63,1.19-1.61,2.16-2.92,2.9-1.32.74-2.93,1.14-4.85,1.21-6.19.15-12.35.15-18.47,0-1.95-.06-3.58-.46-4.9-1.21-1.32-.74-2.29-1.71-2.92-2.9-.63-1.19-.95-2.47-.95-3.83,0-2.23.7-4.08,2.11-5.57,1.41-1.49,3.64-2.24,6.71-2.27,6.13-.09,12.24-.09,18.34,0,3.03,0,5.26.74,6.68,2.23,1.42,1.49,2.14,3.36,2.14,5.62,0,1.36-.32,2.64-.95,3.83Zm4.8-20.73h-4.6v7.24h-9.19v-20.75h9.19v6.17h4.6v7.33Z"/>
  <polygon class="cls-1" points="80.32 81.99 97.63 78.51 97.63 76.93 80.32 80.41 80.32 81.99"/>
</svg>