<?xml version="1.0" encoding="UTF-8"?>
<svg id="_레이어_1" data-name="레이어 1" xmlns="http://www.w3.org/2000/svg" viewBox="0 0 133.75 135.48">
  <defs>
    <style>
      .cls-1 {
        fill: #ccc;
        stroke-width: 0px;
      }
    </style>
  </defs>
  <path class="cls-1" d="m93.35,5.2C59.44-9.15,20.1,7.21,5.48,41.75c-14.62,34.54,1.01,74.17,34.92,88.53,33.91,14.35,73.25-2.01,87.87-36.55,14.62-34.54-1.01-74.17-34.92-88.53Zm-49.7,75.39c-1.57,2.12-4.32,3.17-8.25,3.17h-16.65v-8.85h15.45c.73,0,1.31-.2,1.73-.6.42-.4.62-.92.62-1.55,0-.67-.23-1.2-.67-1.6-.45-.4-1.01-.6-1.68-.6h-5.1c-3.83,0-6.75-.86-8.75-2.58-2-1.72-3-4.29-3-7.73,0-1.9.4-3.65,1.2-5.25.8-1.6,2.11-2.91,3.93-3.92,1.82-1.02,4.16-1.52,7.02-1.52h14.8v8.5h-14.9c-.73,0-1.27.22-1.62.65-.35.43-.52.93-.52,1.5,0,1,.24,1.65.73,1.95.48.3,1.11.45,1.88.45h5.05c2.63,0,4.77.49,6.42,1.48,1.65.98,2.84,2.23,3.58,3.75.73,1.52,1.1,3.12,1.1,4.82,0,3.17-.78,5.81-2.35,7.93Zm31.9,0c-1.57,2.12-4.32,3.17-8.25,3.17h-16.65v-8.85h15.45c.73,0,1.31-.2,1.73-.6.42-.4.62-.92.62-1.55,0-.67-.23-1.2-.67-1.6-.45-.4-1.01-.6-1.68-.6h-5.1c-3.83,0-6.75-.86-8.75-2.58-2-1.72-3-4.29-3-7.73,0-1.9.4-3.65,1.2-5.25.8-1.6,2.11-2.91,3.93-3.92,1.82-1.02,4.16-1.52,7.02-1.52h14.8v8.5h-14.9c-.73,0-1.27.22-1.62.65-.35.43-.52.93-.52,1.5,0,1,.24,1.65.73,1.95.48.3,1.11.45,1.88.45h5.05c2.63,0,4.77.49,6.42,1.48,1.65.98,2.84,2.23,3.58,3.75.73,1.52,1.1,3.12,1.1,4.82,0,3.17-.78,5.81-2.35,7.93Zm40.45-9.98l-.05.05c-.23,3.47-1.04,6.22-2.42,8.25-1.38,2.03-3.27,3.47-5.65,4.3-2.38.83-5.38,1.25-8.97,1.25-5.43,0-9.73-1.27-12.88-3.83-3.15-2.55-4.74-6.48-4.78-11.77v-4.95c-.1-10.1,5.78-15.15,17.65-15.15,4.97,0,8.88,1.01,11.75,3.02,2.87,2.02,4.5,5.18,4.9,9.48h-9.85c-.23-1.53-.92-2.64-2.05-3.32-1.13-.68-2.75-1.03-4.85-1.03-2.53,0-4.34.59-5.43,1.78-1.08,1.18-1.61,3.16-1.57,5.92v3.75c.03,2.97.69,5.04,1.98,6.23,1.28,1.18,3.12,1.77,5.52,1.77s3.98-.34,5.02-1.02c1.05-.68,1.73-1.76,2.02-3.23h-5.65v-7.15l15.3.05v5.6Z"/>
</svg>