<?xml version="1.0" encoding="UTF-8"?>
<svg id="_레이어_1" data-name="레이어 1" xmlns="http://www.w3.org/2000/svg" viewBox="0 0 133.75 135.48">
  <defs>
    <style>
      .cls-1 {
        fill: #ccc;
        stroke-width: 0px;
      }
    </style>
  </defs>
  <polygon class="cls-1" points="31.18 46.02 42.6 41.93 42.6 40.31 31.18 44.39 31.18 46.02"/>
  <polygon class="cls-1" points="31.18 52.51 42.6 48.43 42.6 46.81 31.18 50.89 31.18 52.51"/>
  <path class="cls-1" d="m93.35,5.2C59.44-9.15,20.1,7.21,5.48,41.75c-14.62,34.54,1.01,74.17,34.92,88.53,33.91,14.35,73.25-2.01,87.87-36.55,14.62-34.54-1.01-74.17-34.92-88.53Zm-39.94,66.16h9.14v18.99h-9.14v-6.08h-4.92v-8.26h4.92v-4.64ZM24.73,28.47h24.28v35.65h-24.28V28.47Zm.7,53.06h11.79v-2.69h-11.7v-6.87h21.12v18.34h-9.42v-2.51h-11.79v-6.27Zm37.46,28.27H27.47v-7.24l30.68-4.18h-30.68v-6.27h35.09v6.96l-27.11,3.62h27.43v7.1Zm3.9-60.67h-4.13v15.18h-9.14V27.26h9.14v13.6h4.13v8.26Zm33.47-21.86h8.12v21.82h-8.12v-21.82Zm-31.8,8.17v-7.15h17.78v6.13h3.34v-7.15h8.12v21.82h-8.12v-6.41h-3.34v6.31h-8.68v-3.99h-9v-6.27h9v-3.3h-9.1Zm25.02,72.69h-23.58v-21.77h13.51v-6.41h-13.51v-7.33h22.75v21.03h-13.32v7.19h14.16v7.29Zm13.88.28h-9.19v-37.04h9.19v37.04Zm-8.87-42.71l-7.15-13.37-7.1,13.37h-11.98l7.57-13.41h23.07l7.57,13.41h-11.98Z"/>
</svg>