<?xml version="1.0" encoding="UTF-8"?>
<svg id="_레이어_1" data-name="레이어 1" xmlns="http://www.w3.org/2000/svg" viewBox="0 0 245.41 245.41">
  <defs>
    <style>
      .cls-1 {
        fill: #ccc;
      }

      .cls-1, .cls-2 {
        stroke-width: 0px;
      }

      .cls-2 {
        fill: #fff;
      }
    </style>
  </defs>
  <path class="cls-1" d="M102.61,1.68C35.76,12.78-9.42,75.96,1.68,142.81c11.1,66.84,74.29,112.03,141.13,100.93,66.84-11.1,112.03-74.29,100.93-141.13C232.63,35.76,169.45-9.42,102.61,1.68ZM153.99,78.31c3.07,1.16,6.11,2.3,9.17,3.45-.32.77-.62,1.49-.93,2.24-1.12-.39-2.21-.78-3.36-1.18-1.06,2.72-2.12,5.42-3.19,8.16-.82-.31-1.61-.6-2.45-.91,1.07-2.78,2.13-5.53,3.2-8.33-1.12-.41-2.21-.8-3.36-1.22.3-.74.6-1.45.91-2.21ZM141.03,74.94c2.85.72,5.66,1.43,8.52,2.15-.2.75-.39,1.45-.58,2.19-1.95-.49-3.88-.97-5.85-1.47-.18.67-.34,1.3-.52,1.97,1.74.46,3.45.91,5.2,1.36-.2.76-.4,1.49-.61,2.28-1.72-.42-3.42-.84-5.17-1.26-.18.7-.35,1.38-.53,2.11,2.04.49,4.05.98,6.1,1.47-.21.77-.41,1.51-.63,2.32-2.89-.71-5.76-1.41-8.69-2.12.92-3.68,1.84-7.32,2.77-11ZM126.24,72.95c.81.08,1.6.15,2.45.24-.16,1.59-.31,3.15-.47,4.8.16-.12.27-.18.36-.26,1.53-1.28,3.06-2.57,4.57-3.86.19-.16.35-.22.6-.19.85.1,1.7.17,2.68.27-1.77,1.56-3.45,3.05-5.16,4.56,1.34,2.24,2.67,4.47,4.06,6.79-1.04-.1-1.97-.18-2.89-.29-.13-.02-.27-.19-.35-.32-.85-1.42-1.69-2.84-2.53-4.27-.07-.12-.15-.24-.25-.41-.47.38-.91.72-1.33,1.09-.07.06-.08.21-.1.32-.13.99-.25,1.98-.38,3.02-.81-.08-1.6-.15-2.47-.23.4-3.75.81-7.47,1.21-11.25ZM114.03,73.08c1.07-.04,2.15-.12,3.23-.08,1.55.05,3.08,1.19,3.55,2.53.61,1.73-.39,3.92-1.95,4.67.89,1.28,1.78,2.55,2.73,3.9-.4.02-.72.05-1.05.06-.54.01-1.08,0-1.61.03-.25.01-.4-.06-.54-.28-.64-.99-1.3-1.97-1.94-2.96-.13-.2-.27-.28-.51-.28-.59.02-1.18,0-1.78,0v3.64c-.8.05-1.61.1-2.46.16-.11-3.75-.22-7.47-.34-11.24.94-.05,1.81-.11,2.69-.15ZM96.62,86.27c.83-3.8,1.67-7.6,2.5-11.4.05-.21.14-.3.35-.34.63-.1,1.27-.22,1.89-.35.27-.06.34.12.45.28,1.94,2.92,3.88,5.84,5.81,8.76.28.43.57.85.9,1.35-.94.14-1.79.27-2.65.37-.1.01-.25-.12-.31-.22-.37-.57-.73-1.15-1.08-1.74-.12-.2-.24-.25-.48-.21-1.34.26-2.68.51-4.02.73-.26.04-.35.17-.39.39-.12.66-.25,1.31-.37,1.97-.04.22-.12.32-.37.36-.74.09-1.48.23-2.24.35,0-.12-.02-.22,0-.31ZM81.02,79.55c.1-.03.27.07.37.15,1.23.9,2.46,1.8,3.69,2.7.14.1.27.2.47.34.14-.51.28-.97.4-1.43.32-1.15.63-2.3.95-3.45.04-.13.11-.3.21-.34.79-.3,1.6-.58,2.45-.88,1.28,3.58,2.54,7.13,3.82,10.72-.86.31-1.7.6-2.58.92-.79-2.21-1.57-4.4-2.35-6.59-.03,0-.07,0-.1,0-.48,1.66-.95,3.31-1.45,5.04-1.41-.99-2.77-1.96-4.13-2.92-.03.02-.06.04-.09.06.75,2.1,1.49,4.2,2.26,6.35-.86.3-1.69.6-2.58.92-1.28-3.58-2.54-7.13-3.82-10.72.83-.3,1.65-.6,2.48-.87ZM101.71,146.37c-.2.33-.46.63-.72.93-.77.88-1.59,1.7-2.58,2.34-.59.38-1.2.75-1.82,1.08-2.26,1.18-4.68,1.61-7.22,1.66-1.34-.15-2.7-.2-4.01-.46-1.15-.23-2.29-.59-3.38-1.09-1.21-.55-2.3-1.23-3.35-2.01-1.33-.99-2.49-2.16-3.52-3.45-.97-1.23-1.86-2.53-2.72-3.84-.78-1.19-1.49-2.43-2.19-3.67-.49-.86-.9-1.77-1.35-2.65-.63-1.24-1.27-2.46-1.88-3.71-.5-1.02-.94-2.07-1.42-3.1-.54-1.18-1.1-2.35-1.63-3.53-.32-.71-.62-1.44-.92-2.17-.18-.43-.43-.54-.87-.38-.55.21-1.11.4-1.65.61-.31.12-.47.37-.58.69-.38,1.07-.8,2.13-1.2,3.19-.57,1.53-1.12,3.07-1.69,4.61-.5,1.38-1.05,2.74-1.51,4.13-.39,1.2-.67,2.44-1.02,3.66-.33,1.15-.5,2.33-.48,3.53,0,.88.08,1.71.76,2.39.34.33.14.91-.31,1.04-1.42.41-2.84.65-4.34.28-1.49-.37-2.68-1.11-3.43-2.45-.28-.5-.42-1.09-.58-1.65-.36-1.27-.07-2.53.1-3.78.07-.53.28-1.04.45-1.54.39-1.12.79-2.24,1.2-3.36.47-1.3.95-2.6,1.42-3.9.64-1.78,1.27-3.57,1.91-5.36.69-1.93,1.37-3.87,2.07-5.79.46-1.28.97-2.54,1.43-3.82.62-1.71,1.2-3.44,1.81-5.15.36-1,.75-1.98,1.12-2.98.32-.87.61-1.75.92-2.63.35-.96.71-1.91,1.06-2.87.22-.61.42-1.24.64-1.85.31-.86.62-1.71.94-2.56.45-1.18.8-2.38.65-3.67-.12-1.07-.93-1.78-2.01-1.84-1.54-.08-2.98.25-4.4.84-1.3.54-2.54,1.19-3.65,2.04-1.12.86-2.25,1.71-3.3,2.65-.94.84-1.81,1.76-2.63,2.73-.84,1-1.58,2.08-2.35,3.13-1.25,1.69-2.15,3.57-2.87,5.53-.46,1.27-.74,2.62-1.01,3.95-.28,1.38-.24,2.79-.13,4.2.08,1.09.3,2.12.95,3.03.48.67,1.04,1.2,1.89,1.36.5.1.59.4.37.86-1.1,2.29-4.21,2.34-5.71.77-1.07-1.12-1.61-2.44-1.64-3.96-.02-1.3-.05-2.6.07-3.89.1-1.07.34-2.15.63-3.19.41-1.43.89-2.84,1.4-4.24.26-.71.63-1.38.99-2.05.53-.98,1.07-1.95,1.64-2.9.35-.58.73-1.15,1.15-1.69.89-1.13,1.78-2.27,2.72-3.35,1.99-2.27,4.26-4.23,6.76-5.91,1.82-1.22,3.73-2.28,5.8-3.02,1.03-.37,2.11-.57,3.15-.91,1.39-.45,2.82-.44,4.24-.36,1.91.1,3.59.81,4.82,2.31.59.73.94,1.61,1.14,2.59.33,1.6.1,3.13-.19,4.68-.11.61-.41,1.18-.61,1.77-.17.49-.31,1-.48,1.49-.37,1.09-.75,2.17-1.14,3.25-.33.94-.67,1.88-1.01,2.81-.64,1.74-1.29,3.48-1.92,5.23-.54,1.49-1.07,2.98-1.6,4.46-.07.18-.16.36-.21.55-.08.29.08.48.38.4.66-.18,1.32-.35,1.95-.58,1.18-.43,2.36-.87,3.51-1.36,1.11-.47,2.19-1,3.27-1.54.88-.44,1.74-.9,2.6-1.38,1.13-.63,2.27-1.26,3.36-1.95,1.18-.74,2.31-1.58,3.49-2.33,1.53-.97,2.9-2.13,4.26-3.31,1.18-1.03,2.34-2.09,3.43-3.21,1.22-1.24,2.21-2.66,2.95-4.23.07-.15.1-.32.14-.49.19-.62.86-.84,1.39-.48.81.55,1.15,1.34,1.26,2.29.19,1.71-.5,3.13-1.32,4.55-.78,1.37-1.87,2.5-2.89,3.66-.77.88-1.69,1.64-2.57,2.42-.76.68-1.54,1.33-2.34,1.96-1.11.86-2.21,1.72-3.37,2.49-1.88,1.24-3.79,2.43-5.72,3.58-1.01.6-2.08,1.11-3.13,1.64-.84.42-1.7.81-2.55,1.21-.27.12-.34.32-.25.58.18.52.36,1.04.59,1.54.76,1.69,1.54,3.38,2.32,5.06.71,1.54,1.4,3.09,2.14,4.62.94,1.94,1.89,3.89,2.91,5.79.76,1.43,1.58,2.84,2.47,4.2.64.98,1.39,1.91,2.18,2.77.71.76,1.49,1.48,2.35,2.06.85.57,1.82,1.01,2.78,1.38.89.34,1.83.57,2.76.73,1.12.2,2.26.22,3.41.04,1.38-.21,2.74-.49,3.99-1.12.79-.4,1.51-.92,2.24-1.42.33-.23.66-.31.94-.12.21.15.28.59.09.9ZM148.77,123.54c-.23.05-.61-.09-.74-.27-.11-.15-.01-.52.09-.74.62-1.35.57-3.06-.85-3.79-.56-.29-1.17-.32-1.76-.18-1.08.25-2.05.75-2.98,1.37-1.35.91-2.49,2.05-3.58,3.23-.99,1.08-1.84,2.28-2.54,3.58-.49.91-1.03,1.8-1.47,2.73-.69,1.46-1.34,2.95-1.97,4.44-.5,1.18-.97,2.37-1.41,3.57-.35.94-.65,1.9-.93,2.87-.09.33-.08.71-.06,1.06.03.47-.15.77-.55.99-.71.4-1.46.68-2.26.71-.87.03-1.8.13-2.62-.09-1.85-.51-2.66-1.45-2.83-3.44-.02-.2,0-.39,0-.59,0-.09-.02-.26-.07-.27-.09-.03-.24,0-.31.05-.36.28-.7.59-1.06.86-.64.48-1.26.99-1.95,1.39-.86.5-1.76.97-2.69,1.34-.82.33-1.68.57-2.55.75-1.82.39-3.59.24-5.18-.82-1-.67-1.75-1.58-2.05-2.78-.12-.48-.16-.98-.24-1.47-.03-.17-.1-.33-.15-.5-.16.08-.36.13-.49.25-.69.65-1.34,1.36-2.06,1.98-.98.85-2.07,1.56-3.23,2.14-1.87.92-3.83,1.38-5.93,1.23-1.2-.08-2.34-.34-3.38-.91-.87-.47-1.59-1.12-2.13-1.98-.96-1.54-1.05-3.22-.96-4.96.08-1.51.55-2.93.9-4.38.29-1.22.69-2.41,1.08-3.6.72-2.19,1.47-4.36,2.22-6.54.33-.95.75-1.87,1.03-2.84.33-1.13.59-2.28.78-3.44.07-.46-.1-.98-.22-1.46-.13-.49-.09-.74.37-.97,1.56-.77,3.19-1.04,4.92-.68,1.06.22,1.98.67,2.58,1.57.74,1.1.67,2.34.29,3.56-.31,1.01-.67,2-1.02,3-.37,1.05-.75,2.1-1.11,3.15-.31.88-.6,1.76-.91,2.63-.35,1-.71,1.99-1.05,3-.61,1.81-1.27,3.6-1.8,5.43-.34,1.2-.42,2.48-.1,3.7.36,1.35,1.53,2.01,2.96,1.73,1.47-.28,2.66-1.1,3.74-2.06,1.49-1.32,2.69-2.89,3.65-4.63.76-1.36,1.49-2.73,2.19-4.12.36-.72.63-1.49.92-2.25.53-1.38,1.06-2.76,1.57-4.14.31-.84.62-1.69.9-2.55.33-.99.69-1.98.94-2.99.22-.9.48-1.81.31-2.76-.03-.17-.06-.34-.13-.49-.23-.53-.16-.83.34-1.12.89-.5,1.84-.82,2.86-.93.98-.1,1.93-.06,2.85.36,1.25.57,1.96,1.53,2.1,2.9.15,1.51-.17,2.93-.72,4.33-.36.91-.64,1.85-.97,2.78-.62,1.75-1.25,3.5-1.88,5.25-.35.99-.68,1.98-1.03,2.96-.47,1.32-.96,2.63-1.42,3.94-.31.87-.7,1.74-.69,2.68,0,.66.01,1.34.52,1.88.46.5,1.04.68,1.7.64,1.31-.08,2.44-.63,3.48-1.39,1.86-1.35,3.3-3.09,4.5-5.03.75-1.21,1.42-2.47,2.02-3.76.7-1.53,1.3-3.11,1.92-4.68.46-1.17.89-2.35,1.29-3.54.53-1.61,1.06-3.23,1.48-4.87.18-.69.15-1.46.1-2.19-.07-.92,0-1.17.87-1.47,1.1-.38,2.23-.71,3.41-.68,1.37.03,2.63.42,3.43,1.65.45.7.62,1.5.56,2.33-.08,1.07-.29,2.12-.71,3.13-.06.15-.04.32-.06.49.04.02.07.05.11.07.1-.07.22-.12.3-.2,1.06-1.16,2.12-2.31,3.28-3.37,1.06-.97,2.2-1.83,3.42-2.56,1.54-.92,3.22-1.5,5.05-1.3,1.89.21,3.51.94,4.33,2.8.52,1.17.61,2.41.14,3.64-.25.66-.47,1.34-.83,1.94-.8,1.32-1.9,2.38-3.33,2.99-.8.34-1.67.52-2.52.7ZM209.1,144.71c-.15.18-.45.32-.69.34-.33.01-.47-.3-.53-.59-.25-1.12-.96-1.94-1.81-2.63-1.03-.83-2.26-1.2-3.57-1.38-1.5-.2-2.92.05-4.3.59-.83.33-1.63.75-2.45,1.12-.59.26-.82.79-1.03,1.33-.52,1.33-1.03,2.66-1.54,3.99-.5,1.29-.97,2.6-1.49,3.88-.54,1.35-1.11,2.69-1.7,4.01-.79,1.74-1.58,3.48-2.43,5.18-.56,1.12-1.26,2.17-1.85,3.28-.8,1.47-1.8,2.8-2.86,4.08-1.09,1.33-2.34,2.5-3.85,3.36-1.84,1.04-3.79,1.46-5.91,1.03-1.22-.25-2.3-.71-3.18-1.59-.75-.74-1.18-1.65-1.39-2.67-.23-1.14-.1-2.28.03-3.41.08-.71.29-1.42.57-2.08.42-1,.87-2,1.42-2.93,1.14-1.91,2.54-3.61,4.14-5.16,1.27-1.23,2.54-2.46,3.83-3.66.89-.83,1.79-1.65,2.72-2.43,1.39-1.17,2.81-2.31,4.23-3.46.5-.4,1.03-.77,1.51-1.2.22-.19.38-.47.49-.74.31-.76.58-1.54.86-2.32.26-.73.53-1.45.77-2.18.08-.24.11-.5.16-.75l-.14-.08c-.14.11-.31.19-.41.32-1.12,1.44-2.46,2.65-4,3.62-1.52.96-3.17,1.59-4.98,1.65-1.27.04-2.55.01-3.78-.39-1.22-.39-2.38-.92-3.3-1.83-1.06-1.04-1.62-2.36-1.89-3.81-.02-.1-.03-.21-.08-.3-.05-.1-.13-.23-.21-.24-.09-.01-.22.07-.29.15-1.35,1.56-2.87,2.93-4.61,4.06-1.56,1.01-3.22,1.77-5.03,2.13-1.43.28-2.91.34-4.32-.16-2.13-.76-3.43-2.19-3.7-4.56-.16-1.39.15-2.71.59-4,.32-.95.65-1.9.99-2.85.46-1.27.94-2.53,1.4-3.79.23-.63.43-1.26.66-1.89.33-.9.67-1.79,1-2.68.23-.63.44-1.26.67-1.88.31-.86.62-1.72.94-2.58.36-.97.73-1.93,1.08-2.9.33-.91.66-1.82.99-2.73.41-1.11.81-2.23,1.23-3.34.46-1.25.94-2.49,1.4-3.74.44-1.2.87-2.41,1.31-3.61.39-1.07.8-2.13,1.2-3.19.3-.81.6-1.62.88-2.44.43-1.25.88-2.49,1.24-3.76.25-.91.53-1.83.47-2.82-.03-.51-.11-.98-.41-1.4-.26-.37-.19-.7.21-.91,1-.53,2.06-.93,3.2-.98.72-.03,1.46-.05,2.15.1,1.15.26,2.09.9,2.73,1.95.57.93.59,1.95.47,2.97-.2,1.75-.78,3.41-1.4,5.05-.35.93-.7,1.86-1.06,2.79-.34.91-.69,1.81-1.03,2.71-.36.95-.71,1.91-1.06,2.87-.16.43-.32.85-.49,1.28-.83,2.19-1.66,4.37-2.49,6.56-.63,1.65-1.27,3.29-1.89,4.95-.61,1.62-1.19,3.24-1.79,4.86-.5,1.32-1.04,2.62-1.53,3.94-.79,2.12-1.6,4.24-2.32,6.38-.36,1.05-.55,2.16-.44,3.29.21,2,1.62,2.55,3.3,1.84,1.8-.75,3.03-2.17,4.18-3.7,1.19-1.6,1.99-3.41,2.81-5.2.9-1.97,1.73-3.98,2.57-5.99.48-1.14.93-2.3,1.37-3.45.4-1.06.81-2.13,1.13-3.22.23-.8.38-1.63.47-2.46.05-.41,0-.89-.18-1.26-.23-.5-.05-.78.35-.99.38-.2.77-.4,1.19-.51.91-.24,1.82-.5,2.78-.41,1.78.18,3.08.87,3.75,2.69.24.66.23,1.45.18,2.17-.05.76-.22,1.53-.45,2.26-.31.98-.73,1.93-1.11,2.89-.34.87-.7,1.75-1.05,2.62-.33.82-.67,1.65-1,2.47-.45,1.09-.9,2.18-1.35,3.27-.59,1.44-1.23,2.86-1.73,4.33-.35,1.03-.57,2.12-.74,3.2-.08.51.05,1.07.18,1.59.27,1.06,1.06,1.46,2.14,1.27,1.34-.24,2.46-.9,3.56-1.66,1.68-1.16,3-2.69,4.18-4.32.99-1.38,1.91-2.81,2.77-4.28.71-1.22,1.29-2.51,1.89-3.78.63-1.35,1.23-2.72,1.81-4.09.49-1.17.91-2.36,1.4-3.54.56-1.34.85-2.75,1.1-4.17.05-.28.03-.57.05-.86.03-.57.17-1.06.76-1.3,1.3-.53,2.62-.96,4.05-.68,1.21.24,2.23.84,2.8,1.96.52,1.03.59,2.16.44,3.3-.16,1.14-.58,2.2-1,3.26-.36.89-.67,1.79-1.02,2.68-.65,1.66-1.32,3.31-1.97,4.96-.32.81-.61,1.64-.92,2.46-.36.94-.73,1.87-1.09,2.81-.32.84-.64,1.69-.96,2.53-.36.92-.73,1.85-1.09,2.77-.07.17-.14.34-.18.52-.03.11,0,.24,0,.36.12-.01.26,0,.37-.04.66-.29,1.3-.62,1.96-.89,2.15-.85,4.37-1.24,6.66-.78,1.93.38,3.39,1.47,4.07,3.34.54,1.49.39,2.98-.68,4.26Z"/>
  <path class="cls-1" d="M100.93,77.49c-.28,1.34-.54,2.58-.81,3.87,1.04-.19,2-.36,3.04-.55-.75-1.12-1.46-2.17-2.22-3.31Z"/>
  <path class="cls-1" d="M116.54,78.34c.36-.02.74-.16,1.07-.33.63-.33.85-.89.76-1.59-.09-.64-.53-.97-1.1-1.08-.48-.1-.98-.09-1.48-.11-.61-.02-1.22,0-1.81,0v3.12c.91,0,1.73.03,2.55-.01Z"/>
  <path class="cls-1" d="M181.94,151.34c-.98.87-1.95,1.76-2.85,2.7-1.42,1.47-2.82,2.95-4.15,4.5-1.11,1.28-2.02,2.71-2.79,4.21-.54,1.06-.82,2.18-.72,3.37.06.68.63,1.36,1.24,1.46,1.02.17,1.93-.15,2.75-.71,1.34-.92,2.32-2.19,3.22-3.5,1.22-1.77,2.24-3.66,3.18-5.59.76-1.57,1.46-3.16,2.16-4.75.64-1.45,1.24-2.91,1.84-4.37.05-.11.04-.25.06-.48-.22.09-.35.12-.44.2-1.17.98-2.36,1.95-3.51,2.96Z"/>
  <path class="cls-2" d="M205.72,137.12c-2.29-.45-4.51-.07-6.66.78-.67.26-1.31.6-1.96.89-.11.05-.24.03-.37.04,0-.12-.03-.24,0-.36.04-.18.11-.35.18-.52.36-.92.73-1.84,1.09-2.77.33-.84.64-1.69.96-2.53.36-.94.74-1.87,1.09-2.81.31-.82.6-1.64.92-2.46.65-1.66,1.32-3.31,1.97-4.96.35-.89.66-1.79,1.02-2.68.43-1.06.85-2.12,1-3.26.16-1.14.09-2.27-.44-3.3-.57-1.12-1.59-1.72-2.8-1.96-1.43-.28-2.75.15-4.05.68-.59.24-.73.74-.76,1.3-.02.29,0,.58-.05.86-.26,1.42-.55,2.83-1.1,4.17-.49,1.17-.91,2.37-1.4,3.54-.58,1.37-1.18,2.74-1.81,4.09-.6,1.28-1.18,2.57-1.89,3.78-.85,1.47-1.78,2.9-2.77,4.28-1.18,1.64-2.5,3.16-4.18,4.32-1.1.76-2.22,1.41-3.56,1.66-1.07.2-1.86-.21-2.14-1.27-.13-.51-.26-1.08-.18-1.59.17-1.08.39-2.17.74-3.2.5-1.47,1.15-2.89,1.73-4.33.45-1.09.9-2.18,1.35-3.27.34-.82.67-1.65,1-2.47.35-.87.7-1.74,1.05-2.62.38-.96.79-1.91,1.11-2.89.23-.73.4-1.5.45-2.26.05-.72.06-1.51-.18-2.17-.66-1.82-1.96-2.51-3.75-2.69-.96-.1-1.87.17-2.78.41-.41.11-.81.31-1.19.51-.4.21-.59.49-.35.99.17.37.23.85.18,1.26-.1.83-.24,1.66-.47,2.46-.32,1.09-.73,2.15-1.13,3.22-.44,1.16-.89,2.31-1.37,3.45-.84,2-1.66,4.01-2.57,5.99-.82,1.79-1.62,3.6-2.81,5.2-1.14,1.53-2.38,2.95-4.18,3.7-1.69.7-3.1.16-3.3-1.84-.12-1.13.08-2.24.44-3.29.73-2.14,1.53-4.26,2.32-6.38.49-1.32,1.03-2.62,1.53-3.94.61-1.62,1.19-3.24,1.79-4.86.62-1.65,1.26-3.3,1.89-4.95.83-2.19,1.66-4.37,2.49-6.56.16-.43.33-.85.49-1.28.36-.95.71-1.91,1.06-2.87.34-.91.69-1.81,1.03-2.71.35-.93.7-1.86,1.06-2.79.62-1.64,1.2-3.3,1.4-5.05.12-1.02.1-2.04-.47-2.97-.64-1.05-1.58-1.69-2.73-1.95-.69-.16-1.43-.13-2.15-.1-1.14.05-2.2.45-3.2.98-.4.21-.47.54-.21.91.3.43.38.89.41,1.4.06.98-.22,1.9-.47,2.82-.35,1.27-.81,2.51-1.24,3.76-.28.82-.58,1.63-.88,2.44-.39,1.07-.8,2.13-1.2,3.19-.44,1.2-.86,2.41-1.31,3.61-.46,1.25-.94,2.49-1.4,3.74-.41,1.11-.82,2.23-1.23,3.34-.33.91-.66,1.82-.99,2.73-.36.97-.73,1.93-1.08,2.9-.32.86-.63,1.72-.94,2.58-.23.63-.44,1.26-.67,1.88-.33.9-.67,1.79-1,2.68-.23.63-.43,1.26-.66,1.89-.46,1.27-.94,2.53-1.4,3.79-.34.95-.67,1.9-.99,2.85-.44,1.3-.75,2.61-.59,4,.28,2.38,1.57,3.81,3.7,4.56,1.41.5,2.89.44,4.32.16,1.81-.36,3.47-1.12,5.03-2.13,1.74-1.13,3.25-2.5,4.61-4.06.07-.08.2-.17.29-.15.08.01.16.14.21.24.05.09.06.2.08.3.26,1.45.83,2.77,1.89,3.81.92.91,2.08,1.43,3.3,1.83,1.23.4,2.51.43,3.78.39,1.81-.06,3.47-.69,4.98-1.65,1.54-.97,2.87-2.18,4-3.62.1-.13.27-.21.41-.32l.14.08c-.05.25-.08.51-.16.75-.25.73-.51,1.45-.77,2.18-.28.78-.55,1.56-.86,2.32-.11.27-.28.55-.49.74-.48.43-1.01.79-1.51,1.2-1.41,1.15-2.83,2.28-4.23,3.46-.93.78-1.83,1.6-2.72,2.43-1.29,1.21-2.56,2.43-3.83,3.66-1.59,1.55-3,3.25-4.14,5.16-.55.93-1.01,1.93-1.42,2.93-.27.66-.49,1.37-.57,2.08-.12,1.13-.26,2.27-.03,3.41.21,1.03.64,1.93,1.39,2.67.89.88,1.97,1.34,3.18,1.59,2.12.43,4.07,0,5.91-1.03,1.51-.85,2.76-2.03,3.85-3.36,1.06-1.28,2.06-2.61,2.86-4.08.6-1.1,1.29-2.16,1.85-3.28.85-1.71,1.65-3.44,2.43-5.18.6-1.32,1.16-2.66,1.7-4.01.52-1.28.99-2.59,1.49-3.88.51-1.33,1.02-2.66,1.54-3.99.21-.54.44-1.06,1.03-1.33.82-.37,1.61-.79,2.45-1.12,1.38-.54,2.8-.8,4.3-.59,1.31.18,2.54.55,3.57,1.38.85.69,1.57,1.5,1.81,2.63.07.29.2.61.53.59.24-.01.53-.15.69-.34,1.08-1.27,1.23-2.77.68-4.26-.68-1.87-2.14-2.95-4.07-3.34ZM185.83,148.66c-.61,1.46-1.21,2.93-1.84,4.37-.7,1.59-1.41,3.18-2.16,4.75-.94,1.93-1.96,3.82-3.18,5.59-.91,1.31-1.89,2.58-3.22,3.5-.82.56-1.73.88-2.75.71-.61-.1-1.18-.77-1.24-1.46-.1-1.2.18-2.32.72-3.37.77-1.51,1.68-2.94,2.79-4.21,1.34-1.54,2.74-3.03,4.15-4.5.91-.94,1.87-1.83,2.85-2.7,1.15-1.01,2.33-1.98,3.51-2.96.09-.08.23-.1.44-.2-.03.23-.02.37-.06.48Z"/>
  <path class="cls-2" d="M100.68,145.58c-.73.5-1.45,1.03-2.24,1.42-1.25.63-2.61.91-3.99,1.12-1.15.18-2.28.16-3.41-.04-.94-.17-1.88-.39-2.76-.73-.97-.37-1.93-.81-2.78-1.38-.86-.58-1.64-1.3-2.35-2.06-.8-.86-1.54-1.79-2.18-2.77-.89-1.36-1.7-2.76-2.47-4.2-1.01-1.91-1.96-3.85-2.91-5.79-.74-1.53-1.43-3.08-2.14-4.62-.78-1.69-1.56-3.37-2.32-5.06-.23-.5-.41-1.02-.59-1.54-.09-.25-.02-.45.25-.58.85-.4,1.71-.79,2.55-1.21,1.05-.53,2.12-1.04,3.13-1.64,1.93-1.16,3.84-2.35,5.72-3.58,1.17-.77,2.27-1.64,3.37-2.49.8-.62,1.58-1.28,2.34-1.96.88-.78,1.8-1.54,2.57-2.42,1.02-1.17,2.11-2.3,2.89-3.66.81-1.42,1.51-2.84,1.32-4.55-.11-.95-.45-1.74-1.26-2.29-.53-.36-1.2-.14-1.39.48-.05.16-.07.34-.14.49-.74,1.58-1.73,2.99-2.95,4.23-1.1,1.12-2.25,2.18-3.43,3.21-1.36,1.18-2.73,2.35-4.26,3.31-1.18.75-2.3,1.59-3.49,2.33-1.1.69-2.23,1.32-3.36,1.95-.86.48-1.72.94-2.6,1.38-1.08.53-2.16,1.06-3.27,1.54-1.15.49-2.33.93-3.51,1.36-.64.23-1.3.4-1.95.58-.3.08-.46-.1-.38-.4.05-.19.14-.36.21-.55.54-1.49,1.06-2.98,1.6-4.46.64-1.74,1.28-3.48,1.92-5.23.34-.93.68-1.87,1.01-2.81.38-1.08.76-2.17,1.14-3.25.17-.49.32-1,.48-1.49.2-.59.5-1.16.61-1.77.28-1.54.51-3.08.19-4.68-.2-.97-.54-1.86-1.14-2.59-1.22-1.49-2.9-2.2-4.82-2.31-1.43-.08-2.85-.08-4.24.36-1.04.33-2.13.54-3.15.91-2.07.73-3.99,1.79-5.8,3.02-2.5,1.68-4.77,3.64-6.76,5.91-.95,1.08-1.84,2.22-2.72,3.35-.42.53-.8,1.1-1.15,1.69-.57.95-1.11,1.92-1.64,2.9-.36.67-.73,1.34-.99,2.05-.51,1.4-1,2.81-1.4,4.24-.29,1.04-.53,2.12-.63,3.19-.12,1.29-.09,2.59-.07,3.89.03,1.52.57,2.85,1.64,3.96,1.5,1.57,4.61,1.52,5.71-.77.22-.47.13-.77-.37-.86-.85-.16-1.41-.7-1.89-1.36-.65-.91-.87-1.94-.95-3.03-.11-1.41-.15-2.82.13-4.2.27-1.33.54-2.68,1.01-3.95.71-1.96,1.62-3.84,2.87-5.53.78-1.05,1.51-2.13,2.35-3.13.81-.96,1.69-1.88,2.63-2.73,1.05-.94,2.18-1.79,3.3-2.65,1.12-.86,2.35-1.5,3.65-2.04,1.41-.59,2.86-.93,4.4-.84,1.08.06,1.89.76,2.01,1.84.14,1.29-.2,2.49-.65,3.67-.32.85-.63,1.71-.94,2.56-.22.62-.42,1.24-.64,1.85-.35.96-.71,1.91-1.06,2.87-.32.87-.61,1.75-.92,2.63-.36,1-.76,1.98-1.12,2.98-.61,1.71-1.2,3.44-1.81,5.15-.46,1.28-.97,2.54-1.43,3.82-.7,1.93-1.38,3.86-2.07,5.79-.64,1.79-1.27,3.57-1.91,5.36-.47,1.3-.95,2.6-1.42,3.9-.4,1.12-.81,2.24-1.2,3.36-.18.51-.38,1.02-.45,1.54-.17,1.25-.46,2.51-.1,3.78.16.56.3,1.14.58,1.65.75,1.35,1.94,2.08,3.43,2.45,1.49.37,2.91.13,4.34-.28.46-.13.65-.71.31-1.04-.68-.68-.76-1.51-.76-2.39-.01-1.2.15-2.37.48-3.53.35-1.22.63-2.46,1.02-3.66.45-1.39,1-2.75,1.51-4.13.56-1.53,1.12-3.07,1.69-4.61.4-1.07.82-2.12,1.2-3.19.11-.32.27-.57.58-.69.55-.21,1.1-.41,1.65-.61.44-.17.69-.06.87.38.3.73.6,1.45.92,2.17.53,1.18,1.09,2.35,1.63,3.53.48,1.03.92,2.08,1.42,3.1.61,1.25,1.25,2.47,1.88,3.71.45.88.86,1.79,1.35,2.65.7,1.24,1.41,2.48,2.19,3.67.86,1.31,1.75,2.61,2.72,3.84,1.02,1.29,2.19,2.46,3.52,3.45,1.05.78,2.15,1.47,3.35,2.01,1.1.5,2.23.86,3.38,1.09,1.32.26,2.67.32,4.01.46,2.54-.05,4.96-.48,7.22-1.66.62-.33,1.23-.69,1.82-1.08.99-.64,1.81-1.46,2.58-2.34.26-.29.51-.6.72-.93.19-.31.12-.76-.09-.9-.28-.19-.61-.11-.94.12Z"/>
  <path class="cls-2" d="M154.63,119.85c.36-.59.57-1.28.83-1.94.47-1.23.38-2.46-.14-3.64-.82-1.86-2.44-2.59-4.33-2.8-1.83-.2-3.51.38-5.05,1.3-1.22.73-2.36,1.59-3.42,2.56-1.16,1.06-2.22,2.21-3.28,3.37-.08.09-.2.14-.3.2-.04-.02-.07-.05-.11-.07.02-.16,0-.34.06-.49.42-1,.63-2.05.71-3.13.06-.83-.11-1.63-.56-2.33-.8-1.24-2.06-1.62-3.43-1.65-1.18-.03-2.31.3-3.41.68-.87.3-.94.56-.87,1.47.06.73.08,1.49-.1,2.19-.42,1.64-.95,3.26-1.48,4.87-.39,1.19-.83,2.37-1.29,3.54-.61,1.57-1.21,3.15-1.92,4.68-.59,1.29-1.27,2.55-2.02,3.76-1.19,1.94-2.63,3.68-4.5,5.03-1.05.76-2.17,1.31-3.48,1.39-.65.04-1.23-.14-1.7-.64-.5-.54-.51-1.22-.52-1.88,0-.95.39-1.81.69-2.68.46-1.32.95-2.63,1.42-3.94.35-.99.68-1.98,1.03-2.96.62-1.75,1.26-3.5,1.88-5.25.33-.92.61-1.87.97-2.78.55-1.4.87-2.82.72-4.33-.14-1.37-.85-2.33-2.1-2.9-.92-.42-1.87-.46-2.85-.36-1.02.1-1.97.43-2.86.93-.51.28-.58.59-.34,1.12.07.15.1.32.13.49.17.95-.08,1.86-.31,2.76-.25,1.01-.61,2-.94,2.99-.29.85-.59,1.7-.9,2.55-.52,1.38-1.04,2.77-1.57,4.14-.29.76-.56,1.53-.92,2.25-.7,1.39-1.43,2.76-2.19,4.12-.97,1.74-2.16,3.31-3.65,4.63-1.08.95-2.27,1.77-3.74,2.06-1.43.27-2.6-.38-2.96-1.73-.33-1.23-.24-2.5.1-3.7.52-1.83,1.19-3.63,1.8-5.43.34-1,.7-2,1.05-3,.31-.88.6-1.76.91-2.63.37-1.05.75-2.09,1.11-3.15.35-1,.7-1.99,1.02-3,.38-1.22.44-2.45-.29-3.56-.6-.89-1.52-1.34-2.58-1.57-1.73-.37-3.36-.09-4.92.68-.46.23-.5.48-.37.97.12.48.29.99.22,1.46-.19,1.16-.45,2.31-.78,3.44-.28.97-.7,1.89-1.03,2.84-.75,2.18-1.5,4.35-2.22,6.54-.39,1.19-.79,2.39-1.08,3.6-.34,1.45-.82,2.87-.9,4.38-.09,1.74,0,3.42.96,4.96.54.86,1.26,1.51,2.13,1.98,1.05.57,2.18.83,3.38.91,2.1.15,4.06-.31,5.93-1.23,1.17-.57,2.25-1.29,3.23-2.14.72-.62,1.37-1.33,2.06-1.98.13-.12.32-.17.49-.25.05.17.12.33.15.5.09.49.12.99.24,1.47.31,1.2,1.05,2.11,2.05,2.78,1.59,1.06,3.36,1.21,5.18.82.86-.19,1.73-.42,2.55-.75.93-.37,1.82-.84,2.69-1.34.69-.4,1.31-.91,1.95-1.39.36-.27.7-.58,1.06-.86.08-.06.22-.08.31-.05.05.01.06.17.07.27,0,.2-.02.4,0,.59.17,1.99.98,2.93,2.83,3.44.82.23,1.74.12,2.62.09.8-.03,1.56-.31,2.26-.71.4-.23.58-.53.55-.99-.02-.35-.04-.72.06-1.06.28-.97.58-1.93.93-2.87.44-1.2.91-2.4,1.41-3.57.63-1.49,1.28-2.97,1.97-4.44.44-.93.98-1.82,1.47-2.73.7-1.3,1.55-2.5,2.54-3.58,1.09-1.19,2.23-2.33,3.58-3.23.92-.62,1.89-1.12,2.98-1.37.6-.14,1.21-.11,1.76.18,1.43.73,1.48,2.44.85,3.79-.1.23-.2.59-.09.74.13.18.51.32.74.27.85-.18,1.72-.36,2.52-.7,1.43-.61,2.53-1.67,3.33-2.99Z"/>
  <path class="cls-2" d="M84.93,90.23c-.76-2.15-1.51-4.25-2.26-6.35.03-.02.06-.04.09-.06,1.36.96,2.72,1.93,4.13,2.92.5-1.73.97-3.38,1.45-5.04.03,0,.07,0,.1,0,.78,2.19,1.56,4.38,2.35,6.59.88-.31,1.72-.61,2.58-.92-1.28-3.59-2.54-7.14-3.82-10.72-.85.3-1.65.58-2.45.88-.1.04-.18.21-.21.34-.32,1.15-.63,2.3-.95,3.45-.13.46-.26.92-.4,1.43-.19-.14-.33-.24-.47-.34-1.23-.9-2.45-1.8-3.69-2.7-.11-.08-.28-.19-.37-.15-.83.27-1.65.57-2.48.87,1.28,3.59,2.55,7.14,3.82,10.72.89-.32,1.72-.61,2.58-.92Z"/>
  <path class="cls-2" d="M114.13,84.31v-3.64c.6,0,1.19.01,1.78,0,.24,0,.38.08.51.28.64.99,1.31,1.97,1.94,2.96.14.22.3.29.54.28.54-.02,1.08-.02,1.61-.03.33,0,.66-.03,1.05-.06-.94-1.35-1.83-2.62-2.73-3.9,1.56-.75,2.55-2.94,1.95-4.67-.47-1.34-1.99-2.49-3.55-2.53-1.07-.03-2.15.04-3.23.08-.88.04-1.75.1-2.69.15.11,3.77.22,7.49.34,11.24.85-.05,1.66-.11,2.46-.16ZM113.99,75.23c.59,0,1.2-.01,1.81,0,.49.01,1,.01,1.48.11.57.11,1.01.44,1.1,1.08.09.69-.13,1.26-.76,1.59-.33.17-.71.31-1.07.33-.82.05-1.65.01-2.55.01v-3.12Z"/>
  <path class="cls-2" d="M147.58,85.74c-2.05-.5-4.06-.98-6.1-1.47.19-.74.36-1.42.53-2.11,1.76.43,3.46.85,5.17,1.26.21-.79.41-1.52.61-2.28-1.75-.46-3.45-.91-5.2-1.36.18-.67.34-1.3.52-1.97,1.97.49,3.89.98,5.85,1.47.2-.74.38-1.45.58-2.19-2.85-.72-5.67-1.43-8.52-2.15-.93,3.68-1.84,7.32-2.77,11,2.93.72,5.8,1.42,8.69,2.12.22-.8.42-1.54.63-2.32Z"/>
  <path class="cls-2" d="M127.88,81.41c.01-.11.03-.26.1-.32.42-.36.86-.71,1.33-1.09.1.17.18.29.25.41.84,1.42,1.68,2.85,2.53,4.27.08.13.22.3.35.32.92.11,1.85.19,2.89.29-1.39-2.32-2.72-4.56-4.06-6.79,1.71-1.51,3.39-3,5.16-4.56-.99-.1-1.83-.17-2.68-.27-.25-.03-.41.03-.6.19-1.52,1.29-3.05,2.58-4.57,3.86-.09.08-.2.14-.36.26.16-1.65.32-3.21.47-4.8-.85-.08-1.64-.16-2.45-.24-.41,3.78-.81,7.5-1.21,11.25.87.08,1.66.16,2.47.23.13-1.05.26-2.04.38-3.02Z"/>
  <path class="cls-2" d="M98.86,86.23c.25-.03.33-.14.37-.36.12-.66.25-1.31.37-1.97.04-.23.13-.35.39-.39,1.34-.22,2.69-.47,4.02-.73.24-.05.36,0,.48.21.35.59.71,1.16,1.08,1.74.07.1.22.23.31.22.86-.1,1.71-.24,2.65-.37-.33-.5-.62-.92-.9-1.35-1.94-2.92-3.88-5.84-5.81-8.76-.11-.16-.18-.34-.45-.28-.63.13-1.26.25-1.89.35-.22.03-.31.13-.35.34-.83,3.8-1.67,7.6-2.5,11.4-.02.09,0,.2,0,.31.77-.12,1.5-.26,2.24-.35ZM100.93,77.49c.77,1.14,1.47,2.19,2.22,3.31-1.04.19-2,.36-3.04.55.27-1.29.53-2.53.81-3.87Z"/>
  <path class="cls-2" d="M153.24,90.08c.84.31,1.63.6,2.45.91,1.07-2.73,2.13-5.44,3.19-8.16,1.15.4,2.24.79,3.36,1.18.31-.75.61-1.48.93-2.24-3.06-1.15-6.1-2.29-9.17-3.45-.31.76-.61,1.47-.91,2.21,1.15.42,2.24.81,3.36,1.22-1.08,2.8-2.14,5.56-3.2,8.33Z"/>
</svg>