<?xml version="1.0" encoding="UTF-8"?>
<svg id="_레이어_1" data-name="레이어 1" xmlns="http://www.w3.org/2000/svg" viewBox="0 0 245.41 245.41">
  <defs>
    <style>
      .cls-1 {
        fill: #ccc;
      }

      .cls-1, .cls-2 {
        stroke-width: 0px;
      }

      .cls-2 {
        fill: #fff;
      }
    </style>
  </defs>
  <path class="cls-1" d="M166.78,113.88c-2.71-.24-5.1.53-6.98,2.54-2.04,2.18-2.68,4.83-2.26,7.74.63,4.36,4.14,7.4,8.49,7.4,1.46,0,2.77-.29,3.94-.93,2.7-1.47,4.14-3.8,4.49-6.82.57-4.97-2.7-9.49-7.68-9.94Z"/>
  <path class="cls-1" d="M102.61,1.68C35.76,12.78-9.42,75.96,1.68,142.81c11.1,66.84,74.29,112.03,141.13,100.93,66.84-11.1,112.03-74.29,100.93-141.13C232.63,35.76,169.45-9.42,102.61,1.68ZM53.51,134.13c-1.37,1.53-3.14,2.4-5.12,2.77-5.73,1.06-10.81-.42-15.36-4.14,1.25-1.49,2.47-2.95,3.72-4.44,1.35,1.09,2.74,2.03,4.32,2.64,1.9.74,3.86,1.03,5.88.6.44-.09.88-.28,1.27-.52,1.51-.95,1.52-2.98.02-3.95-1.09-.71-2.35-1.02-3.58-1.38-1.72-.51-3.45-1.01-5.16-1.55-.46-.14-.9-.37-1.33-.59-2.25-1.14-3.62-2.9-3.9-5.45-.27-2.51.16-4.83,1.89-6.78,1.35-1.53,3.07-2.45,5.04-2.82,4.9-.91,9.36.14,13.35,3.15.04.03.09.06.15.11-1.09,1.57-2.16,3.12-3.26,4.7-.18-.12-.35-.23-.51-.33-1.69-1.1-3.47-2-5.48-2.33-1.2-.2-2.4-.21-3.55.28-1.17.5-1.66,1.43-1.45,2.68.12.73.56,1.26,1.2,1.53,1.01.44,2.05.83,3.11,1.15,1.91.57,3.88.98,5.72,1.79,1.17.52,2.27,1.15,3.18,2.07,1.19,1.22,1.75,2.71,1.85,4.39.15,2.4-.35,4.61-2,6.44ZM80.48,128.78c-.16,4.15-2.58,7.07-6.79,8.03-4.71,1.07-9.13.19-13.24-2.28-.85-.51-1.63-1.15-2.5-1.76,1.28-1.53,2.5-2.97,3.74-4.45.28.21.54.42.81.62,1.76,1.31,3.66,2.32,5.85,2.66,1.37.21,2.75.27,4.09-.2,1.42-.5,2.11-1.67,1.77-3-.13-.53-.44-.92-.88-1.22-.88-.61-1.88-.93-2.9-1.23-1.86-.55-3.75-1.04-5.59-1.65-1.54-.51-2.96-1.26-4.06-2.51-1.1-1.25-1.53-2.75-1.62-4.36-.13-2.34.43-4.46,2.05-6.22,1.44-1.56,3.27-2.46,5.33-2.79,4.71-.75,9.02.28,12.86,3.16.07.06.14.12.23.21-1.07,1.55-2.14,3.09-3.24,4.68-.18-.12-.34-.23-.51-.34-1.69-1.1-3.47-2-5.48-2.33-1.15-.19-2.29-.2-3.4.22-1.24.47-1.77,1.37-1.61,2.67.1.77.55,1.32,1.22,1.61,1.01.44,2.06.81,3.11,1.15,1.84.59,3.7,1.09,5.52,1.73,1.31.46,2.49,1.2,3.45,2.22,1.43,1.52,1.87,3.38,1.79,5.39ZM109.69,133.18c-3.75,2.97-8.01,4.37-12.79,4.11-3.81-.21-7.18-1.51-9.89-4.27-2.23-2.27-3.46-5.03-3.85-8.18-.44-3.53.15-6.86,2.06-9.89,2.48-3.93,6.09-6.15,10.68-6.72,3.12-.39,6.18-.09,9.11,1.14,1.49.63,2.82,1.53,4.08,2.6-1.33,1.6-2.63,3.16-3.89,4.67-.89-.58-1.71-1.22-2.62-1.69-2.19-1.14-4.53-1.49-6.92-.82-2.83.8-4.66,2.74-5.57,5.49-.99,3.01-.66,5.92,1.15,8.56,1.33,1.94,3.23,3.05,5.56,3.36,2.34.31,4.58-.02,6.66-1.2.42-.24.62-.49.6-1.01-.05-.99-.01-1.98-.02-2.96,0-.13-.01-.27-.02-.44h-6.23v-5.34h12.3v.52c0,3.75,0,7.5,0,11.25,0,.36-.12.58-.4.81ZM118.37,137.11c-1.95,0-3.52-1.57-3.51-3.51,0-1.95,1.61-3.53,3.56-3.51,1.94.02,3.5,1.6,3.49,3.54-.01,1.94-1.58,3.48-3.54,3.47ZM145.43,135.71c-2.22,1.16-4.61,1.59-7.09,1.61-3.63.03-6.91-1.02-9.7-3.38-2.92-2.47-4.56-5.66-4.97-9.45-.42-3.86.41-7.43,2.74-10.58,2.3-3.12,5.43-4.96,9.24-5.58,3.18-.52,6.31-.26,9.32.96,1.64.67,3.57,2.01,4.61,3.18-1.31,1.51-2.63,3.02-3.93,4.51-.79-.58-1.53-1.18-2.32-1.68-2.2-1.37-4.58-1.87-7.11-1.18-2.91.8-4.79,2.75-5.64,5.6-1.03,3.41-.49,6.58,1.9,9.29,1.7,1.93,3.93,2.67,6.48,2.55,2.28-.11,4.19-1.05,5.9-2.48.31-.26.62-.52.87-.74,1.35,1.32,2.68,2.62,4.04,3.95-1.28,1.38-2.68,2.56-4.34,3.43ZM169.32,136.98c-4.3.84-8.39.26-12.08-2.2-3.72-2.48-5.81-6.01-6.27-10.45-.44-4.33.75-8.18,3.69-11.41,2.48-2.72,5.61-4.22,9.24-4.68.71-.09,1.43-.12,1.95-.16,4.91.11,8.94,1.72,12,5.41,2.01,2.42,3.02,5.24,3.19,8.38.4,7.33-4.52,13.7-11.72,15.11ZM212.38,136.42v.39h-6.19v-18.23s-.07-.03-.11-.04c-2.64,3.99-5.28,7.98-7.99,12.06-2.67-4.03-5.29-7.98-7.97-12.03v18.25h-6.11v-28.21c.12,0,.21-.02.3-.02,2.03,0,4.06,0,6.09,0,.29,0,.4.15.52.35,2.32,3.72,4.64,7.43,6.97,11.15.08.13.17.27.28.44.73-1.18,1.44-2.31,2.15-3.44,1.69-2.71,3.38-5.41,5.06-8.12.17-.28.35-.37.68-.37,1.96.02,3.92.02,5.89,0,.34,0,.43.1.43.43,0,9.14,0,18.28,0,27.42Z"/>
  <path class="cls-2" d="M211.96,108.57c-1.96.02-3.92.02-5.89,0-.32,0-.51.09-.68.37-1.68,2.71-3.37,5.42-5.06,8.12-.71,1.13-1.42,2.27-2.15,3.44-.11-.17-.2-.3-.28-.44-2.32-3.72-4.65-7.43-6.97-11.15-.13-.2-.23-.35-.52-.35-2.03.02-4.06,0-6.09,0-.09,0-.18.01-.3.02v28.21h6.11v-18.25c2.68,4.05,5.3,8,7.97,12.03,2.71-4.08,5.35-8.07,7.99-12.06.04.01.07.03.11.04v18.23h6.19v-.39c0-9.14,0-18.28,0-27.42,0-.33-.09-.44-.43-.43Z"/>
  <path class="cls-2" d="M177.85,113.48c-3.06-3.7-7.1-5.3-12-5.41-.52.04-1.24.07-1.95.16-3.63.46-6.76,1.96-9.24,4.68-2.95,3.23-4.14,7.08-3.69,11.41.46,4.45,2.55,7.97,6.27,10.45,3.69,2.46,7.78,3.04,12.08,2.2,7.21-1.41,12.12-7.78,11.72-15.11-.17-3.14-1.19-5.96-3.19-8.38ZM174.46,123.82c-.35,3.02-1.78,5.35-4.49,6.82-1.17.64-2.48.93-3.94.93-4.36,0-7.86-3.04-8.49-7.4-.42-2.91.22-5.56,2.26-7.74,1.88-2.01,4.27-2.79,6.98-2.54,4.98.45,8.25,4.96,7.68,9.94Z"/>
  <path class="cls-2" d="M110.08,120.6h-12.3v5.34h6.23c0,.18.02.31.02.44,0,.99-.04,1.98.02,2.96.03.52-.18.77-.6,1.01-2.09,1.18-4.33,1.51-6.66,1.2-2.33-.31-4.23-1.42-5.56-3.36-1.81-2.64-2.14-5.55-1.15-8.56.91-2.75,2.75-4.69,5.57-5.49,2.39-.68,4.73-.33,6.92.82.9.47,1.72,1.11,2.62,1.69,1.26-1.51,2.56-3.07,3.89-4.67-1.25-1.07-2.58-1.97-4.08-2.6-2.93-1.23-5.99-1.53-9.11-1.14-4.59.57-8.2,2.79-10.68,6.72-1.91,3.02-2.5,6.36-2.06,9.89.39,3.15,1.62,5.91,3.85,8.18,2.71,2.76,6.09,4.06,9.89,4.27,4.78.26,9.04-1.13,12.79-4.11.28-.22.4-.44.4-.81-.01-3.75,0-7.5,0-11.25v-.52Z"/>
  <path class="cls-2" d="M53.65,123.3c-.9-.92-2-1.55-3.18-2.07-1.84-.82-3.8-1.22-5.72-1.79-1.06-.32-2.1-.71-3.11-1.15-.64-.28-1.08-.8-1.2-1.53-.21-1.25.28-2.18,1.45-2.68,1.15-.49,2.35-.48,3.55-.28,2.01.33,3.79,1.23,5.48,2.33.17.11.33.22.51.33,1.1-1.58,2.17-3.12,3.26-4.7-.06-.04-.11-.07-.15-.11-3.99-3.02-8.45-4.07-13.35-3.15-1.97.37-3.69,1.3-5.04,2.82-1.73,1.95-2.16,4.27-1.89,6.78.28,2.55,1.65,4.32,3.9,5.45.43.22.87.45,1.33.59,1.71.54,3.44,1.04,5.16,1.55,1.23.36,2.48.68,3.58,1.38,1.5.97,1.49,2.99-.02,3.95-.38.24-.83.42-1.27.52-2.02.43-3.98.14-5.88-.6-1.58-.61-2.97-1.54-4.32-2.64-1.25,1.49-2.47,2.95-3.72,4.44,4.56,3.72,9.63,5.21,15.36,4.14,1.98-.37,3.75-1.24,5.12-2.77,1.65-1.83,2.15-4.04,2-6.44-.11-1.68-.66-3.17-1.85-4.39Z"/>
  <path class="cls-2" d="M75.23,121.17c-1.82-.63-3.69-1.13-5.52-1.73-1.05-.34-2.1-.71-3.11-1.15-.67-.29-1.12-.84-1.22-1.61-.16-1.3.37-2.2,1.61-2.67,1.11-.42,2.25-.41,3.4-.22,2.01.33,3.79,1.23,5.48,2.33.17.11.33.22.51.34,1.1-1.58,2.17-3.12,3.24-4.68-.09-.08-.16-.15-.23-.21-3.84-2.87-8.14-3.91-12.86-3.16-2.06.33-3.89,1.23-5.33,2.79-1.62,1.76-2.19,3.88-2.05,6.22.09,1.62.51,3.12,1.62,4.36,1.1,1.24,2.52,2,4.06,2.51,1.85.61,3.73,1.09,5.59,1.65,1.01.3,2.02.63,2.9,1.23.44.3.75.7.88,1.22.34,1.33-.35,2.5-1.77,3-1.34.47-2.72.41-4.09.2-2.19-.34-4.09-1.34-5.85-2.66-.27-.2-.53-.4-.81-.62-1.24,1.48-2.46,2.93-3.74,4.45.86.61,1.64,1.25,2.5,1.76,4.11,2.47,8.54,3.35,13.24,2.28,4.21-.96,6.63-3.88,6.79-8.03.08-2.01-.36-3.88-1.79-5.39-.97-1.02-2.14-1.76-3.45-2.22Z"/>
  <path class="cls-2" d="M144.87,129.08c-1.71,1.44-3.63,2.38-5.9,2.48-2.55.12-4.78-.62-6.48-2.55-2.39-2.71-2.93-5.89-1.9-9.29.86-2.85,2.74-4.8,5.64-5.6,2.53-.7,4.91-.19,7.11,1.18.8.5,1.53,1.1,2.32,1.68,1.29-1.49,2.61-3,3.93-4.51-1.04-1.17-2.97-2.51-4.61-3.18-3.01-1.23-6.14-1.48-9.32-.96-3.81.62-6.93,2.46-9.24,5.58-2.33,3.15-3.15,6.72-2.74,10.58.41,3.8,2.04,6.98,4.97,9.45,2.79,2.36,6.07,3.4,9.7,3.38,2.48-.02,4.86-.44,7.09-1.61,1.66-.87,3.07-2.05,4.34-3.43-1.36-1.33-2.69-2.63-4.04-3.95-.26.22-.56.48-.87.74Z"/>
  <path class="cls-2" d="M118.42,130.09c-1.95-.02-3.56,1.56-3.56,3.51,0,1.94,1.56,3.5,3.51,3.51,1.96,0,3.53-1.53,3.54-3.47.01-1.94-1.54-3.51-3.49-3.54Z"/>
</svg>