<?xml version="1.0" encoding="UTF-8"?>
<svg id="_레이어_1" data-name="레이어 1" xmlns="http://www.w3.org/2000/svg" viewBox="0 0 245.41 245.41">
  <defs>
    <style>
      .cls-1 {
        fill: #ccc;
      }

      .cls-1, .cls-2 {
        stroke-width: 0px;
      }

      .cls-2 {
        fill: #fff;
      }
    </style>
  </defs>
  <path class="cls-1" d="M205.98,111.14c-3.59,0-5.98,2.26-6,5.67-.02,3.39,2.39,5.66,6,5.68,3.81.02,6.33-2.23,6.39-5.68.05-3.35-2.57-5.68-6.38-5.67Z"/>
  <path class="cls-1" d="M61.32,111.15c-3.75.08-5.86,2.37-5.94,6.45-.02,1.27,0,2.54,0,3.8,0,1.46-.03,2.93,0,4.39.1,3.8,2.31,6.04,5.97,6.11,3.84.07,6.29-2.16,6.42-6,.1-2.83.08-5.66,0-8.49-.11-4.07-2.51-6.35-6.46-6.27Z"/>
  <path class="cls-1" d="M126.36,116.98c-.19-3.71-2.52-5.86-6.25-5.84-3.69.02-6.01,2.22-6.12,5.96-.08,2.92-.07,5.85,0,8.77.09,3.72,2.42,5.96,6.1,6,3.71.03,6.1-2.16,6.28-5.82.07-1.46.01-2.92.01-4.39,0-1.56.07-3.12-.01-4.68Z"/>
  <path class="cls-1" d="M243.74,102.61C232.63,35.76,169.45-9.42,102.61,1.68S-9.42,75.96,1.68,142.81c11.1,66.84,74.29,112.03,141.13,100.93s112.03-74.29,100.93-141.13ZM29.79,124.21c.01,4.18,1.22,6.38,4,7.34,3.03,1.04,5.54.13,8.32-3.21,1.62.82,3.31,1.67,5,2.51-1.65,4.28-6.03,6.74-11.38,6.5-7.82-.35-11.9-4.61-11.93-12.44,0-2.83-.04-5.65,0-8.48.08-4.55,2.7-8.23,6.94-9.86,6.41-2.45,13.3-.31,16.53,5.43-1.77.94-3.38,1.8-4.72,2.51-1.66-1.17-2.99-2.64-4.62-3.15-4.3-1.34-7.81,1.29-8.1,5.82-.15,2.33-.04,4.68-.04,7.01ZM73.77,127.06c-.72,6.92-5.73,10.65-12.86,10.26-7.21-.4-11.45-4.55-11.76-11.56-.07-1.46,0-2.93,0-4.39h-.01c0-.78,0-1.56,0-2.34.02-9.98,6.79-15.31,16.45-12.87,4.36,1.1,7.35,3.95,7.93,8.39.54,4.12.69,8.39.26,12.51ZM102.78,136.72c-2.08-.54-4.75,1.76-5.84-1.45-2.4.68-4.75,1.73-7.19,1.97-6.06.62-11.15-3.56-11.39-9.54-.28-6.99-.07-14.01-.07-21.21h5.98c0,1.73,0,3.53,0,5.34,0,4.58-.07,9.16.03,13.74.09,3.98,2.42,6.26,6.16,6.3,3.82.04,6.16-2.06,6.26-6.12.15-6.33.04-12.66.04-19.31h6.02v30.28ZM132.41,127.56c-.97,8.31-8.78,12.18-16.34,8.46-.59-.29-1.16-.59-2.09-1.06v14.29h-6.25v-42.84c2.23.42,4.78-1.75,5.99,1.39,2.42-.68,4.77-1.73,7.19-1.95,6.11-.54,10.52,2.81,11.32,8.88.55,4.22.67,8.6.18,12.82ZM159.68,137.21c-2.05-.61-3.76-1.26-5.53-1.58-.71-.13-1.55.45-2.33.74-4.41,1.63-8.71,1.56-12.37-1.59-3.49-3.01-4.27-7.06-3.17-11.46,1.54-6.1,8.3-9.28,14.74-6.98.9.32,1.77.72,2.68,1.09.59-6.51-3.11-7.71-14.22-4.59-.53-1.52-1.06-3.05-1.67-4.81,4.71-2.02,9.36-3.11,14.28-1.86,4.12,1.05,7.36,4.85,7.52,9.43.25,6.9.06,13.82.06,21.61ZM189.46,136.63h-6.08c0-3.66,0-7.24,0-10.81,0-2.73.05-5.47-.02-8.2-.1-4.21-2.33-6.47-6.25-6.45-3.83.02-6.15,2.4-6.21,6.57-.07,5.66-.02,11.32-.03,16.98,0,.57-.1,1.14-.17,1.89h-5.66v-30.13c2.09.22,4.63-1.61,5.66.88,3.38-.51,6.56-1.45,9.71-1.36,4.74.14,8.67,3.92,8.94,8.89.39,7.17.1,14.37.1,21.73ZM221.63,110.76c-1.35.38-2.61.74-3.73,1.05.19,2.12.51,3.95.47,5.77-.1,5.15-3.92,9.26-9.27,10.05-1.64.24-3.38,0-4.93.46-1.57.46-2.96,1.51-4.44,2.31.13.43.27.86.4,1.29,1.97,0,3.94,0,5.91,0,2.34,0,4.69-.05,7.02.04,4.15.17,7.3,2.87,8.05,6.78.94,4.9-1.42,9.44-6.19,11.56-.83-1.47-1.68-2.97-2.56-4.51.81-.73,1.84-1.25,2.16-2.05.58-1.42,1.32-3.23.87-4.47-.38-1.04-2.33-2.05-3.63-2.12-5.06-.24-10.14-.1-15.22-.11-.76,0-1.51-.09-2.41-.15-.7-4.31.24-7.84,3.54-10.31-1.2-2.18-2.73-4.15-3.43-6.38-2.12-6.73,1.96-12.92,8.93-13.95,4.19-.62,8.16-.07,11.31,2.11,2.46-.95,4.58-1.77,7.12-2.76v5.41Z"/>
  <path class="cls-1" d="M147.96,120.61c-3.48,0-5.91,2.42-5.89,5.86.02,3.32,2.67,5.81,6.09,5.71,3.52-.1,5.93-2.5,5.93-5.91,0-3.3-2.56-5.66-6.13-5.66Z"/>
  <path class="cls-2" d="M203.21,106c-6.98,1.03-11.05,7.22-8.93,13.95.7,2.23,2.23,4.2,3.43,6.38-3.3,2.47-4.24,6-3.54,10.31.9.06,1.66.15,2.41.15,5.07.01,10.15-.13,15.22.11,1.3.06,3.25,1.08,3.63,2.12.45,1.24-.29,3.05-.87,4.47-.33.81-1.36,1.32-2.16,2.05.88,1.55,1.72,3.04,2.56,4.51,4.77-2.12,7.13-6.65,6.19-11.56-.75-3.91-3.9-6.61-8.05-6.78-2.34-.1-4.68-.04-7.02-.04-1.97,0-3.94,0-5.91,0-.13-.43-.27-.86-.4-1.29,1.47-.79,2.87-1.85,4.44-2.31,1.55-.46,3.3-.21,4.93-.46,5.35-.79,9.17-4.9,9.27-10.05.04-1.82-.29-3.64-.47-5.77,1.12-.32,2.38-.67,3.73-1.05v-5.41c-2.54.98-4.65,1.8-7.12,2.76-3.14-2.18-7.12-2.73-11.31-2.11ZM205.98,122.49c-3.61-.02-6.01-2.3-6-5.68.02-3.4,2.41-5.66,6-5.67,3.81,0,6.43,2.32,6.38,5.67-.05,3.45-2.58,5.7-6.39,5.68Z"/>
  <path class="cls-2" d="M120.91,105.86c-2.42.21-4.77,1.26-7.19,1.95-1.21-3.14-2.79-1.58-5.99-1.39v42.84h6.25v-14.29c.93.47,1.51.77,2.09,1.06,7.55,3.72,15.37-.15,16.34-8.46.49-4.22.38-8.6-.18-12.82-.8-6.08-5.22-9.43-11.32-8.88ZM126.36,126.04c-.18,3.67-2.57,5.86-6.28,5.82-3.67-.03-6.01-2.27-6.1-6-.07-2.92-.08-5.85,0-8.77.1-3.73,2.43-5.94,6.12-5.96,3.73-.02,6.06,2.12,6.25,5.84.08,1.56.01,3.12.01,4.68,0,1.46.06,2.93-.01,4.39Z"/>
  <path class="cls-2" d="M152.09,106.17c-4.92-1.25-9.57-.16-14.28,1.86.61,1.76,1.14,3.29,1.67,4.81,11.11-3.12,14.81-1.92,14.22,4.59-.91-.37-1.78-.77-2.68-1.09-6.44-2.3-13.2.89-14.74,6.98-1.11,4.4-.32,8.45,3.17,11.46,3.66,3.15,7.97,3.22,12.37,1.59.77-.29,1.62-.86,2.33-.74,1.77.32,3.48.97,5.53,1.58,0-7.79.18-14.71-.06-21.61-.16-4.58-3.4-8.38-7.52-9.43ZM148.16,132.18c-3.42.1-6.07-2.38-6.09-5.71-.02-3.44,2.41-5.86,5.89-5.86,3.57,0,6.13,2.36,6.13,5.66,0,3.4-2.41,5.8-5.93,5.91Z"/>
  <path class="cls-2" d="M65.57,106.15c-9.66-2.44-16.43,2.89-16.45,12.87,0,.78,0,1.56,0,2.34h.01c0,1.46-.06,2.93,0,4.39.32,7.01,4.55,11.16,11.76,11.56,7.13.4,12.14-3.33,12.86-10.26.43-4.12.28-8.39-.26-12.51-.58-4.45-3.57-7.29-7.93-8.39ZM67.77,125.9c-.13,3.84-2.58,6.07-6.42,6-3.66-.07-5.87-2.31-5.97-6.11-.04-1.46,0-2.93,0-4.39,0-1.27-.02-2.54,0-3.8.07-4.07,2.19-6.36,5.94-6.45,3.95-.08,6.35,2.2,6.46,6.27.07,2.83.09,5.66,0,8.49Z"/>
  <path class="cls-2" d="M180.42,106c-3.15-.09-6.33.85-9.71,1.36-1.03-2.48-3.57-.66-5.66-.88v30.13h5.66c.07-.75.17-1.32.17-1.89.01-5.66-.05-11.32.03-16.98.05-4.17,2.38-6.55,6.21-6.57,3.92-.02,6.15,2.24,6.25,6.45.06,2.73.02,5.46.02,8.2,0,3.57,0,7.14,0,10.81h6.08c0-7.36.29-14.57-.1-21.73-.27-4.97-4.2-8.75-8.94-8.89Z"/>
  <path class="cls-2" d="M96.72,125.75c-.1,4.06-2.44,6.16-6.26,6.12-3.74-.04-6.07-2.32-6.16-6.3-.1-4.58-.03-9.16-.03-13.74,0-1.8,0-3.61,0-5.34h-5.98c0,7.21-.22,14.22.07,21.21.24,5.98,5.34,10.16,11.39,9.54,2.44-.25,4.79-1.29,7.19-1.97,1.09,3.22,3.76.91,5.84,1.45v-30.28h-6.02c0,6.65.11,12.99-.04,19.31Z"/>
  <path class="cls-2" d="M37.94,111.37c1.63.51,2.96,1.98,4.62,3.15,1.34-.71,2.95-1.57,4.72-2.51-3.23-5.75-10.11-7.88-16.53-5.43-4.24,1.62-6.86,5.3-6.94,9.86-.05,2.83-.02,5.65,0,8.48.03,7.84,4.11,12.09,11.93,12.44,5.35.24,9.73-2.22,11.38-6.5-1.68-.85-3.37-1.7-5-2.51-2.78,3.34-5.29,4.25-8.32,3.21-2.79-.96-3.99-3.16-4-7.34,0-2.34-.11-4.69.04-7.01.29-4.54,3.8-7.16,8.1-5.82Z"/>
  <rect class="cls-2" x="107.73" y="105.8" width="6" height="6"/>
</svg>