<?xml version="1.0" encoding="UTF-8"?>
<svg id="_레이어_1" data-name="레이어 1" xmlns="http://www.w3.org/2000/svg" viewBox="0 0 17.66 18.04">
  <defs>
    <style>
      .cls-1 {
        fill: #3d3d3d;
        stroke: #3d3d3d;
        stroke-miterlimit: 10;
        stroke-width: .25px;
      }
    </style>
  </defs>
  <path class="cls-1" d="M1.92,17.92c-.51,0-.94-.17-1.28-.51s-.51-.77-.51-1.28V1.92C.12,1.41.3.98.64.64S1.41.12,1.92.12h6.57c.16,0,.29.05.4.16.11.11.16.24.16.4s-.05.29-.16.4c-.11.11-.24.16-.4.16H1.92c-.17,0-.33.07-.47.21-.14.14-.21.3-.21.47v14.2c0,.17.07.33.21.47.14.14.3.21.47.21h6.57c.16,0,.29.05.4.16.11.11.16.24.16.4s-.05.29-.16.4c-.11.11-.24.16-.4.16H1.92ZM15.76,9.58H6.46c-.16,0-.29-.05-.4-.16-.11-.11-.16-.24-.16-.4s.05-.29.16-.4c.11-.11.24-.16.4-.16h9.31l-2.19-2.19c-.1-.1-.16-.23-.17-.38,0-.15.05-.28.17-.4.12-.12.25-.19.39-.19.14,0,.28.06.4.18l2.91,2.91c.18.18.27.39.27.63,0,.24-.09.45-.27.63l-2.91,2.91c-.11.11-.24.17-.39.17-.15,0-.28-.05-.41-.18-.12-.12-.18-.25-.17-.4s.06-.27.18-.39l2.19-2.19Z"/>
</svg>