<?xml version="1.0" encoding="UTF-8"?>
<svg id="_레이어_1" data-name="레이어 1" xmlns="http://www.w3.org/2000/svg" viewBox="0 0 16.48 21.12">
  <defs>
    <style>
      .cls-1 {
        fill: #3d3d3d;
        stroke: #3d3d3d;
        stroke-miterlimit: 10;
        stroke-width: .25px;
      }
    </style>
  </defs>
  <path class="cls-1" d="M2,21c-.53,0-.98-.18-1.34-.54-.36-.36-.54-.8-.54-1.34V6.64c0-.53.18-.98.54-1.34s.8-.54,1.34-.54h2.19v-.58c0-1.13.39-2.08,1.18-2.87.79-.79,1.75-1.18,2.87-1.18s2.08.39,2.87,1.18c.79.79,1.18,1.75,1.18,2.87v.58h2.19c.53,0,.98.18,1.34.54s.54.8.54,1.34v12.49c0,.53-.18.98-.54,1.34-.36.36-.8.54-1.34.54H2ZM2,19.84h12.49c.18,0,.34-.07.49-.22.15-.15.22-.31.22-.49V6.64c0-.18-.07-.34-.22-.49-.15-.15-.31-.22-.49-.22h-2.19v2.9c0,.17-.06.3-.17.41-.11.11-.25.17-.41.17s-.3-.06-.41-.17c-.11-.11-.17-.25-.17-.41v-2.9h-5.8v2.9c0,.17-.06.3-.17.41-.11.11-.25.17-.41.17s-.3-.06-.41-.17c-.11-.11-.17-.25-.17-.41v-2.9H2c-.18,0-.34.07-.49.22-.15.15-.22.31-.22.49v12.49c0,.18.07.34.22.49.15.15.31.22.49.22ZM5.34,4.76h5.8v-.58c0-.82-.28-1.5-.84-2.06-.56-.56-1.25-.84-2.06-.84s-1.5.28-2.06.84c-.56.56-.84,1.25-.84,2.06v.58ZM1.28,19.84V5.92v13.91Z"/>
</svg>