<?xml version="1.0" encoding="UTF-8"?>
<svg id="_레이어_1" data-name="레이어 1" xmlns="http://www.w3.org/2000/svg" viewBox="0 0 17.15 19.51">
  <defs>
    <style>
      .cls-1 {
        fill: #3d3d3d;
        stroke: #3d3d3d;
        stroke-miterlimit: 10;
        stroke-width: .25px;
      }
    </style>
  </defs>
  <path class="cls-1" d="M1.83,19.38c-.49,0-.89-.16-1.22-.49-.33-.33-.49-.73-.49-1.22V4.19c0-.49.16-.89.49-1.22s.73-.49,1.22-.49h1.87V.69c0-.16.05-.3.16-.41.11-.11.24-.16.41-.16s.3.05.41.16c.11.11.16.24.16.41v1.79h7.56V.65c0-.15.05-.28.15-.38s.23-.15.38-.15c.15,0,.28.05.38.15s.15.23.15.38v1.83h1.87c.49,0,.89.16,1.22.49s.49.73.49,1.22v13.49c0,.49-.16.89-.49,1.22-.33.33-.73.49-1.22.49H1.83ZM1.83,18.32h13.49c.16,0,.31-.07.45-.2.14-.14.2-.28.2-.45v-9.26H1.18v9.26c0,.16.07.31.2.45.14.14.28.2.45.2ZM1.18,7.36h14.79v-3.17c0-.16-.07-.31-.2-.45-.14-.14-.28-.2-.45-.2H1.83c-.16,0-.31.07-.45.2-.14.14-.2.28-.2.45v3.17ZM1.18,7.36v-3.82,3.82ZM8.57,12.15c-.22,0-.41-.08-.57-.24-.16-.16-.24-.35-.24-.57,0-.22.08-.41.24-.57.16-.16.35-.24.57-.24s.41.08.57.24c.16.16.24.35.24.57,0,.22-.08.41-.24.57-.16.16-.35.24-.57.24ZM4.35,12.15c-.22,0-.41-.08-.57-.24-.16-.16-.24-.35-.24-.57s.08-.41.24-.57c.16-.16.35-.24.57-.24s.41.08.57.24c.16.16.24.35.24.57,0,.22-.08.41-.24.57-.16.16-.35.24-.57.24ZM12.8,12.15c-.22,0-.41-.08-.57-.24-.16-.16-.24-.35-.24-.57s.08-.41.24-.57c.16-.16.35-.24.57-.24s.41.08.57.24c.16.16.24.35.24.57s-.08.41-.24.57c-.16.16-.35.24-.57.24ZM8.57,16.21c-.22,0-.41-.08-.57-.24-.16-.16-.24-.35-.24-.57,0-.22.08-.41.24-.57.16-.16.35-.24.57-.24s.41.08.57.24c.16.16.24.35.24.57,0,.22-.08.41-.24.57-.16.16-.35.24-.57.24ZM4.35,16.21c-.22,0-.41-.08-.57-.24-.16-.16-.24-.35-.24-.57s.08-.41.24-.57c.16-.16.35-.24.57-.24s.41.08.57.24c.16.16.24.35.24.57,0,.22-.08.41-.24.57-.16.16-.35.24-.57.24ZM12.8,16.21c-.22,0-.41-.08-.57-.24-.16-.16-.24-.35-.24-.57s.08-.41.24-.57c.16-.16.35-.24.57-.24s.41.08.57.24c.16.16.24.35.24.57s-.08.41-.24.57c-.16.16-.35.24-.57.24Z"/>
</svg>