<?xml version="1.0" encoding="UTF-8"?>
<svg id="_레이어_1" data-name="레이어 1" xmlns="http://www.w3.org/2000/svg" viewBox="0 0 18 18">
  <defs>
    <style>
      .cls-1 {
        fill: #fff;
        stroke: #fff;
        stroke-miterlimit: 10;
        stroke-width: .25px;
      }
    </style>
  </defs>
  <path class="cls-1" d="M7.93,17.31c-.18,0-.34-.06-.48-.19-.13-.12-.22-.28-.25-.46l-.26-2.02c-.29-.09-.61-.23-.96-.42-.34-.19-.63-.39-.87-.61l-1.85.8c-.18.08-.36.09-.53.03-.17-.06-.31-.18-.41-.34l-1.07-1.86c-.09-.16-.11-.34-.08-.52.03-.18.13-.33.28-.45l1.61-1.21c-.03-.17-.05-.34-.07-.52s-.03-.35-.03-.52c0-.16,0-.32.03-.49.02-.17.04-.36.07-.58l-1.61-1.21c-.15-.11-.24-.26-.28-.45-.04-.18-.01-.36.09-.52l1.07-1.82c.1-.16.23-.28.4-.34.17-.06.34-.05.52.03l1.85.78c.28-.23.57-.44.89-.62.32-.18.63-.33.94-.43l.28-2.02c.03-.18.11-.34.25-.46.13-.12.29-.19.48-.19h2.13c.18,0,.34.06.48.19.14.12.22.28.26.46l.26,2.04c.35.12.67.27.94.43.27.16.55.36.84.6l1.92-.78c.18-.08.35-.09.52-.03s.3.17.4.33l1.07,1.84c.1.16.13.34.09.52s-.13.33-.28.45l-1.68,1.26c.05.19.08.37.09.52,0,.16,0,.32,0,.47,0,.14,0,.29-.02.45-.01.16-.04.35-.08.58l1.64,1.23c.15.11.24.26.28.45.04.18.01.36-.09.52l-1.07,1.85c-.1.16-.24.28-.41.34-.18.06-.35.05-.53-.03l-1.85-.8c-.29.24-.58.45-.87.62-.29.17-.59.31-.91.41l-.26,2.04c-.03.18-.12.34-.26.46-.14.12-.3.19-.48.19,0,0-2.13,0-2.13,0ZM8.08,16.38h1.81l.34-2.5c.47-.12.88-.29,1.26-.51.37-.21.75-.51,1.14-.88l2.3.98.92-1.57-2.02-1.52c.08-.26.13-.5.15-.73.02-.22.04-.44.04-.66,0-.23-.01-.46-.04-.66-.02-.21-.08-.44-.15-.69l2.06-1.55-.92-1.57-2.36.99c-.28-.31-.65-.59-1.1-.86s-.89-.45-1.29-.53l-.28-2.5h-1.84l-.29,2.48c-.47.1-.89.26-1.28.48-.39.22-.78.52-1.16.91l-2.3-.96-.92,1.57,2,1.49c-.08.21-.13.43-.16.67s-.05.49-.05.76c0,.23.02.47.05.7s.08.46.14.67l-1.98,1.52.92,1.57,2.28-.97c.36.37.74.66,1.13.88.39.22.83.39,1.32.52l.3,2.48ZM8.98,11.31c.64,0,1.19-.22,1.64-.67.45-.45.67-.99.67-1.64s-.22-1.19-.67-1.64c-.45-.45-.99-.67-1.64-.67s-1.19.22-1.64.67c-.45.45-.67.99-.67,1.64s.22,1.19.67,1.64c.45.45.99.67,1.64.67Z"/>
</svg>