<?xml version="1.0" encoding="UTF-8"?>
<svg id="_레이어_1" data-name="레이어 1" xmlns="http://www.w3.org/2000/svg" viewBox="0 0 14 15.77">
  <defs>
    <style>
      .cls-1 {
        fill: #00c8f4;
        stroke-width: 0px;
      }
    </style>
  </defs>
  <path class="cls-1" d="M2.62,15.77c-.44,0-.82-.16-1.14-.47-.32-.32-.47-.7-.47-1.14V1.77h-.5c-.14,0-.26-.05-.36-.14-.1-.1-.14-.21-.14-.36s.05-.26.14-.36c.1-.1.21-.14.36-.14h3.5c0-.21.08-.39.23-.54.15-.15.33-.23.54-.23h4.46c.21,0,.39.08.54.23s.23.33.23.54h3.5c.14,0,.26.05.36.14.1.1.14.21.14.36s-.05.26-.14.36-.21.14-.36.14h-.5v12.38c0,.44-.16.82-.47,1.14-.32.32-.7.47-1.14.47H2.62ZM12,1.77H2v12.38c0,.18.06.33.17.44.12.12.26.17.44.17h8.77c.18,0,.33-.06.44-.17.12-.12.17-.26.17-.44V1.77ZM5.31,12.77c.14,0,.26-.05.36-.14s.14-.21.14-.36V4.27c0-.14-.05-.26-.14-.36-.1-.1-.21-.14-.36-.14s-.26.05-.36.14-.14.21-.14.36v8c0,.14.05.26.14.36.1.1.21.14.36.14ZM8.69,12.77c.14,0,.26-.05.36-.14.1-.1.14-.21.14-.36V4.27c0-.14-.05-.26-.14-.36-.1-.1-.21-.14-.36-.14s-.26.05-.36.14-.14.21-.14.36v8c0,.14.05.26.14.36s.21.14.36.14ZM2,1.77v13V1.77Z"/>
</svg>