<?xml version="1.0" encoding="UTF-8"?>
<svg id="_레이어_1" data-name="레이어 1" xmlns="http://www.w3.org/2000/svg" viewBox="0 0 12 12">
  <defs>
    <style>
      .cls-1 {
        fill: #00c8f4;
        stroke: #00c8f4;
        stroke-miterlimit: 10;
        stroke-width: .25px;
      }
    </style>
  </defs>
  <path class="cls-1" d="M6,6.71l-3.54,3.54c-.1.1-.22.15-.35.15-.14,0-.25-.05-.35-.15s-.15-.22-.15-.35c0-.14.05-.25.15-.35l3.54-3.54L1.76,2.46c-.1-.1-.15-.22-.15-.35,0-.14.05-.25.15-.35s.22-.15.35-.15c.14,0,.25.05.35.15l3.54,3.54,3.54-3.54c.1-.1.22-.15.35-.15.14,0,.25.05.35.15s.15.22.15.35c0,.14-.05.25-.15.35l-3.54,3.54,3.54,3.54c.1.1.15.22.15.35,0,.14-.05.25-.15.35s-.22.15-.35.15c-.14,0-.25-.05-.35-.15l-3.54-3.54Z"/>
</svg>